<?xml version="1.0" standalone="no"?>
<!DOCTYPE svg PUBLIC "-//W3C//DTD SVG 1.1//EN" "http://www.w3.org/Graphics/SVG/1.1/DTD/svg11.dtd" >
<svg xmlns="http://www.w3.org/2000/svg">
<metadata></metadata>
<defs>
<font id="centuryschoolbookbold" horiz-adv-x="1011" >
<font-face units-per-em="2048" ascent="1638" descent="-410" />
<missing-glyph horiz-adv-x="630" />
<glyph horiz-adv-x="2048" />
<glyph horiz-adv-x="2048" />
<glyph unicode="&#xd;" horiz-adv-x="630" />
<glyph unicode=" "  horiz-adv-x="630" />
<glyph unicode="&#x09;" horiz-adv-x="630" />
<glyph unicode="&#xa0;" horiz-adv-x="630" />
<glyph unicode="!" horiz-adv-x="591" d="M166 1217q0 90 44 156.5t130 66.5q84 0 131 -60.5t47 -148.5q0 -63 -22 -156q-12 -47 -25 -94q-35 -137 -54.5 -275.5t-19.5 -273.5h-108q0 242 -60 490q-29 98 -41 145q-23 88 -22 150zM172 170q0 76 49 125t127 49q74 0 123 -51t49 -125q0 -72 -51 -123t-125 -51 t-123 51t-49 125z" />
<glyph unicode="&#x22;" horiz-adv-x="892" d="M47 862q51 43 96 92q64 70 64 111q0 16 -80 61t-80 144q0 74 54.5 122t129.5 48q76 0 123 -70t47 -149q0 -104 -51 -195q-57 -100 -233 -240zM502 866q57 41 98 86q58 62 66 113q-4 23 -82 64.5t-78 127.5q0 80 49 131.5t129 51.5t129 -64.5t49 -148.5q0 -133 -88 -254 q-76 -102 -205 -185z" />
<glyph unicode="#" horiz-adv-x="1134" d="M68 422v137h219l53 395h-219v140h239l60 422h141l-59 -422h254l59 422h141l-59 -422h170v-138h-190l-56 -397h189v-137h-207l-60 -422h-141l60 422h-254l-60 -422h-141l59 422h-198zM428 559h252l55 397h-252z" />
<glyph unicode="$" horiz-adv-x="1054" d="M49 317q0 74 42 123t116 49q57 0 102 -40.5t45 -98.5q0 -57 -42 -107t-42 -77q0 -47 63.5 -71.5t117.5 -24.5v495q-170 55 -261 144q-111 109 -110 270q0 174 99.5 277.5t273.5 123.5v168h98l-2 -164q211 -35 295 -112q74 -68 74 -176q0 -72 -39 -113t-111 -41 q-47 0 -82 39t-35 88q0 41 23.5 82t23.5 53q0 43 -50 65.5t-97 22.5v-438q190 -84 276 -170q119 -119 119 -297q0 -168 -117 -274q-102 -94 -278 -129v-168h-100v168l-58 4q-133 14 -233 102q-111 96 -111 227zM297 1096q0 -76 47 -129q41 -47 117 -78v393 q-74 -20 -119 -66.5t-45 -119.5zM549 76q100 31 139 71q51 52 51 148q0 78 -56 146.5t-134 86.5v-452z" />
<glyph unicode="%" horiz-adv-x="1601" d="M-14 932q0 170 59 287q77 153 231 153q160 0 238 -155q61 -123 61 -299q0 -182 -51 -300q-72 -164 -231 -163q-170 0 -248 161q-59 123 -59 316zM197 1073l2 -67v-244q0 -96 6 -133q16 -94 69 -94q45 0 63.5 39.5t18.5 91.5v524q0 39 -23.5 66.5t-60.5 27.5t-56 -55 t-19 -156zM328 0l721 1364h112l-719 -1364h-114zM909 451q0 180 60 297q77 155 241 155q152 0 230 -149q61 -119 61 -287q0 -258 -86 -381q-72 -104 -203 -104q-160 0 -239 161q-63 129 -64 308zM1122 621l2 -433q0 -45 19.5 -83.5t58.5 -38.5q35 0 58.5 35.5t23.5 107.5v82 l-4 301q2 41 2 65q0 57 -4 80q-15 78 -74 78q-41 0 -61.5 -46t-20.5 -148z" />
<glyph unicode="&#x26;" horiz-adv-x="1560" d="M6 334q0 158 109 270q55 57 243 180q-41 76 -67.5 157t-26.5 155q0 170 116 270t288 100q131 0 225 -73q104 -82 104 -207q0 -129 -104 -217q-43 -37 -217 -131q51 -94 106 -176q25 -37 203 -279q53 80 64 98q35 61 34 111q0 66 -48 91.5t-120 25.5v92h533v-96 q-117 0 -178 -58q-39 -37 -109 -162q-25 -43 -52.5 -85t-64.5 -93q37 -53 84 -90q61 -49 111 -49q59 0 102 59q35 47 54 113l94 -47q-63 -143 -148 -221q-104 -96 -241 -97q-74 0 -144.5 35t-130.5 92q-90 -59 -189 -93t-204 -34q-166 0 -291 95q-135 102 -135 264zM279 483 q0 -127 97 -245.5t222 -118.5q41 0 86 18q18 8 78 41q-188 235 -352 518q-68 -45 -97 -88q-35 -51 -34 -125zM543 1184q0 -43 30 -129q25 -66 54 -129q88 35 151 106q72 80 72 166q0 66 -41 117t-104 51q-74 0 -118 -53t-44 -129z" />
<glyph unicode="'" horiz-adv-x="421" d="M41 1010q0 133 94 252q74 92 207 184l68 -78q-66 -49 -101 -86q-63 -66 -63 -111q0 -16 78.5 -66t78.5 -136q0 -76 -53 -127t-129 -51q-82 0 -131 66.5t-49 152.5z" />
<glyph unicode="(" horiz-adv-x="591" d="M39 573q0 248 123 480q109 205 307 393l68 -86q-154 -184 -228 -365q-82 -197 -82 -420q0 -186 56 -350q49 -147 157 -317q35 -53 45 -68q25 -35 56 -63l-72 -80q-193 184 -303 395q-127 242 -127 481z" />
<glyph unicode=")" horiz-adv-x="591" d="M25 1364l73 82q158 -193 211 -264q109 -150 158 -277q59 -154 59 -332q0 -252 -120 -479q-100 -188 -308 -395l-69 82q143 162 226 367.5t83 416.5q0 217 -82 422t-231 377z" />
<glyph unicode="*" horiz-adv-x="845" d="M59 838q0 59 103 102q121 37 155 49q-78 25 -155 49q-101 43 -101 109q0 31 24 52.5t52 21.5q39 0 116 -59.5t105 -102.5q-14 66 -18 98q-10 57 -10 100q0 49 18.5 82t61.5 33q41 0 60 -32.5t19 -75.5q0 -47 -12 -98.5t-22 -100.5q94 82 100 88q70 55 117 55q76 0 76 -75 q0 -59 -97 -99q-74 -25 -145 -49q119 -43 141 -53q96 -47 96 -103q0 -33 -20.5 -55t-54.5 -22q-55 0 -146 86q-39 37 -76 73q2 -8 16.5 -91t14.5 -132q0 -35 -22.5 -61.5t-59.5 -26.5q-8 2 -17 4t-13 6q-27 12 -38.5 37t-11.5 58q0 37 19.5 107.5t19.5 102.5 q-41 -47 -96 -92q-76 -61 -115 -61q-35 0 -59.5 20.5t-24.5 55.5z" />
<glyph unicode="+" horiz-adv-x="1349" d="M49 492v208h494v494h211v-494h489v-208h-489v-492h-211v492h-494z" />
<glyph unicode="," horiz-adv-x="466" d="M39 -248q53 41 100 92q68 74 68 111q0 12 -80 63.5t-80 145.5q0 74 53.5 121t128.5 47q82 0 129.5 -66.5t47.5 -152.5q0 -129 -93 -254q-80 -109 -204 -183z" />
<glyph unicode="-" horiz-adv-x="925" d="M47 350v266h789v-266h-789z" />
<glyph unicode="." horiz-adv-x="466" d="M39 170q0 78 52 130t132 52q72 0 123 -53t51 -127q0 -76 -55 -127t-131 -51q-72 0 -122 52t-50 124z" />
<glyph unicode="/" horiz-adv-x="714" d="M4 -367q76 238 180 598q84 301 170 603q102 364 176 602h152l-528 -1803h-150z" />
<glyph unicode="0" d="M39 686q0 274 86 457q116 246 360 246q238 0 351 -254q84 -188 84 -461q0 -264 -82 -447q-113 -248 -342 -247q-242 0 -363 245q-94 193 -94 461zM344 950l4 -346l-2 -129q0 -199 35 -294t106 -95q57 0 88 70.5t31 218.5v289l-6 325q0 154 -29.5 220.5t-95.5 66.5 q-82 0 -113 -129q-18 -78 -18 -197z" />
<glyph unicode="1" d="M129 -2v92l121 -6q72 0 99.5 31.5t27.5 109.5v813q0 63 -39 86t-107 23l-98 -2v90q125 0 223.5 27.5t194.5 97.5h111v-1172q0 -59 43 -84q33 -18 100 -18l86 2v-90h-762z" />
<glyph unicode="2" d="M-25 -2v98q111 139 224 281q156 199 243 348q117 199 117 315q0 98 -56.5 163t-154.5 65q-45 0 -100 -33t-55 -76q0 -31 70.5 -82t70.5 -127q0 -68 -42 -105.5t-112 -37.5q-76 0 -123 67.5t-47 147.5q0 166 140 268q127 94 299 94t290 -86q135 -98 135 -262 q0 -209 -227 -434q-193 -174 -383 -346l334 -2q90 0 132 40t75 208l94 -8l-68 -496h-856z" />
<glyph unicode="3" d="M31 281q0 78 42 131t117 53q53 0 92.5 -37t39.5 -90q0 -41 -23 -81t-47 -81q0 -41 51 -67.5t98 -26.5q127 0 179 115q35 80 34 227q0 109 -43 170q-51 74 -155 74l-86 -4q-35 0 -52.5 12t-17.5 45q0 31 23.5 41t60.5 10l88 -6q76 0 117 57q51 72 51 221q0 109 -43 168 q-51 72 -156 72q-63 0 -98 -22.5t-35 -53.5q0 -16 37 -63t37 -101q0 -57 -39 -94t-96 -37q-61 0 -101 48.5t-40 113.5q0 143 129 234q115 80 264 80q174 0 286 -74q133 -88 134 -254q0 -127 -82 -213q-66 -70 -199 -125q139 -25 225 -107q95 -90 95 -227q0 -197 -134 -305 q-125 -102 -325 -102q-166 0 -283 65q-145 82 -145 234z" />
<glyph unicode="4" d="M4 319v103q70 109 178 270q90 133 183 269q135 199 270 399h125v-924h131v-117h-129v-141q0 -57 43 -76q25 -10 94 -10v-94h-596v94l33 2q96 0 119 15q35 23 34 106l-2 104h-483zM133 436h354v535z" />
<glyph unicode="5" d="M59 305q0 84 52.5 144.5t138.5 60.5q53 0 94 -43t41 -98q0 -78 -68.5 -128.5t-68.5 -68.5l2 -14q23 -43 75 -59.5t111 -16.5q94 0 139 139q33 100 33 221q0 141 -30 220q-47 123 -166 122q-66 0 -109 -26.5t-113 -139.5q-23 -14 -38 -14q-49 0 -50 53q0 25 15.5 52.5 t23.5 44.5q20 39 41 280.5t21 356.5q80 -27 143 -40.5t135 -13.5q184 0 377 52l-6 -31q-20 -162 -156 -230q-102 -51 -288 -51h-31q-16 0 -37 1t-55 7l-21 -235q92 35 133 43t90 8q188 0 311.5 -123t123.5 -311q0 -201 -134.5 -345.5t-334.5 -144.5q-156 0 -269 84 q-125 92 -125 244z" />
<glyph unicode="6" d="M49 567q0 319 101 535q133 287 415 287q115 0 209 -58q109 -68 109 -174q0 -90 -45 -143t-131 -53q-57 0 -98.5 40.5t-41.5 98.5q0 27 13.5 65.5t31.5 65.5q0 29 -24.5 42t-52.5 13q-123 0 -170 -186q-27 -106 -27 -285l2 -82q72 55 119 78q67 33 139 33q166 0 252 -123 q78 -111 78 -283q0 -195 -121 -328t-313 -133q-221 0 -342 191q-102 162 -103 399zM358 422q0 -174 34 -255t104 -81q63 0 95 73.5t32 239.5q0 121 -17 185q-31 117 -117 116q-76 0 -108 -108q-23 -72 -23 -170z" />
<glyph unicode="7" d="M72 817l69 551l379 -12q63 0 137 4q184 10 232 10q31 0 49 -20.5t18 -51.5q0 -35 -19 -82t-83 -153q-94 -160 -174 -348q-96 -223 -117 -371q-8 -57 -16 -121.5t-27 -107.5q-33 -74 -73.5 -103.5t-120.5 -29.5q-63 0 -101.5 52t-38.5 118q0 94 119 292q86 143 248 361 q106 139 213 280h-47l-299 2q-147 0 -197 -63q-39 -49 -57 -207h-94z" />
<glyph unicode="8" d="M33 303q0 111 67 199q57 74 166 137q-100 59 -152.5 141t-52.5 195q0 193 126 303.5t323 110.5q152 0 260 -82q119 -90 119 -238q0 -100 -63.5 -184t-159.5 -125q127 -84 176 -142q74 -86 73 -208q0 -182 -122.5 -307.5t-305.5 -125.5q-180 0 -303 72q-152 88 -151 254z M236 313q0 -98 66.5 -168.5t164.5 -70.5q92 0 165 57t73 148q0 115 -117 198q-72 51 -221 111q-59 -59 -93 -123q-38 -76 -38 -152zM250 1098q0 -82 63 -144q35 -35 242 -137q131 84 131 250q0 96 -60.5 158.5t-156.5 62.5q-82 0 -150.5 -54t-68.5 -136z" />
<glyph unicode="9" d="M39 928q0 195 118.5 328t311.5 133q225 0 346 -187q102 -158 103 -397q0 -203 -39 -363q-49 -203 -158 -323q-127 -141 -324 -142q-123 0 -213 66q-100 74 -100 193q0 68 47 121t115 53q152 0 151 -154q0 -31 -23.5 -76t-23.5 -53q0 -27 28 -38t58 -11q94 0 143.5 117.5 t49.5 363.5v27v22q-4 16 -4 25q-59 -47 -123.5 -78t-130.5 -31q-164 0 -252 123q-80 111 -80 281zM346 956q0 -106 19 -174q30 -110 106 -110q86 0 119 119q20 74 20 190q0 121 -20 188q-35 117 -125 117q-76 0 -105 -137q-14 -66 -14 -111v-82z" />
<glyph unicode=":" horiz-adv-x="548" d="M139 174q0 68 51 121t121 53q78 0 131.5 -53t53.5 -131q0 -72 -54.5 -122t-128.5 -50q-78 0 -126 52t-48 130zM143 821q0 68 53 115t121 47q78 0 130.5 -50t52.5 -128t-54.5 -126t-134.5 -48q-78 0 -123 55t-45 135z" />
<glyph unicode=";" horiz-adv-x="548" d="M125 809q0 76 51 125t129 49q74 0 123 -51t49 -127q0 -82 -54 -126t-136 -44q-66 0 -114 52t-48 122zM129 -248q68 53 102 90q66 70 66 113q0 16 -79 66.5t-79 132.5q0 80 49.5 127t128.5 47q82 0 131.5 -64.5t49.5 -148.5q0 -141 -90 -254q-68 -86 -211 -180z" />
<glyph unicode="&#x3c;" horiz-adv-x="1241" d="M94 455v127l1041 471v-140l-871 -395l871 -395v-139z" />
<glyph unicode="=" horiz-adv-x="1349" d="M-47 299v211h1364v-211h-1364zM-47 684v211h1364v-211h-1364z" />
<glyph unicode="&#x3e;" horiz-adv-x="1241" d="M106 -16v139l871 395l-871 395v140l1041 -471v-127z" />
<glyph unicode="?" horiz-adv-x="1054" d="M127 1153q0 133 139 217q123 74 266 74q180 0 306 -76q152 -92 151 -264q0 -94 -54 -183.5t-140 -148.5q-121 -82 -133 -94q-86 -74 -87 -229h-100l-2 36q0 150 105.5 328t105.5 272q0 109 -57.5 178.5t-165.5 69.5q-27 0 -54.5 -14t-27.5 -39q27 -47 48.5 -87t21.5 -75 q0 -68 -37 -110.5t-105 -42.5q-90 0 -135 48t-45 140zM350 172q0 72 49 121t123 49t124 -48t50 -120q0 -84 -52 -132t-138 -48q-66 0 -111 55t-45 123z" />
<glyph unicode="@" horiz-adv-x="2078" d="M301 739q0 317 226.5 543.5t545.5 226.5q285 0 490 -174q215 -184 215 -465q0 -207 -140 -391q-152 -201 -350 -200q-57 0 -94 34.5t-37 94.5q-53 -57 -117.5 -93t-132.5 -36q-131 0 -216 97t-85 230q0 215 127 383q137 182 346 182q80 0 140.5 -42t95.5 -117l41 127h141 q-76 -252 -149 -504q-14 -53 -25.5 -101.5t-11.5 -62.5q0 -25 5 -42t38 -17q123 0 213 163q78 143 78 279q0 240 -164 384t-408 144q-270 0 -446 -190.5t-176 -464.5q0 -270 182 -454.5t457 -184.5q143 0 275 61.5t220 172.5h137q-100 -168 -270 -264.5t-369 -96.5 q-328 0 -555 225.5t-227 552.5zM774 625q0 -84 45 -141.5t127 -57.5q125 0 219 145q86 133 86 265q0 72 -48 130t-120 58q-131 0 -225 -137q-84 -123 -84 -262z" />
<glyph unicode="A" horiz-adv-x="1435" d="M-51 0v96q121 0 190 154q39 102 56 145q68 176 135 355q113 297 135 354q70 182 139 354h135q59 -147 155.5 -392t158.5 -407q76 -201 153 -401q29 -74 71 -116t116 -56v-88h-629v96h37q41 0 72.5 10.5t31.5 42.5q0 57 -33.5 139.5t-64.5 155.5h-490q-29 -76 -45 -123 q-31 -88 -30 -118q0 -59 50 -82t116 -23l49 2v-98h-508zM358 543h414l-209 532q-47 -100 -106 -264q-82 -225 -99 -268z" />
<glyph unicode="B" horiz-adv-x="1435" d="M-27 -2v94h45q98 0 130 27.5t32 83.5v1036q0 57 -51 80q-35 14 -104 14h-48v101h711q197 0 336 -68q182 -88 182 -266q0 -162 -96 -244q-68 -57 -246 -115q170 -23 283 -110q133 -104 133 -264q0 -197 -193 -293q-152 -76 -368 -76h-746zM483 188q0 -59 54 -84 q37 -16 104 -16q141 0 218 77t77 220q0 307 -307 307h-146v-504zM483 784h113q139 0 215 68t76 207t-72 206.5t-213 67.5q-76 0 -97.5 -39t-21.5 -120v-390z" />
<glyph unicode="C" horiz-adv-x="1435" d="M31 668l2 98q0 311 202.5 501.5t522.5 190.5q106 0 182 -23.5t168 -84.5q18 23 39 53q15 20 35 55l102 -2q0 -156 6 -300t25 -282l-101 -16q-63 287 -184 406q-98 98 -246 98q-233 0 -335 -232q-74 -166 -74 -434q0 -258 78 -407q104 -201 338 -201q184 0 305 125 q106 111 151 301l94 -33q-76 -258 -217 -379q-154 -131 -413 -131q-297 0 -488.5 198t-191.5 499z" />
<glyph unicode="D" horiz-adv-x="1517" d="M-27 0v96h43q109 0 136 39q20 29 20 148v340l-2 553q0 123 -30.5 145t-166.5 22v95h607q399 0 602 -166q221 -182 221 -574q0 -344 -211 -526q-199 -172 -549 -172h-670zM477 1142q0 -20 2 -40v-858q0 -88 32 -120t120 -32q246 0 350 213q78 158 78 432t-78 416 q-104 190 -356 190q-92 0 -125 -47q-23 -33 -23 -116v-38z" />
<glyph unicode="E" horiz-adv-x="1308" d="M-14 0v94l51 -2q72 0 106 21q45 27 45 94v991q0 92 -36 121q-27 20 -109 20h-55v95h1157l18 -510h-88q-51 242 -125 317q-90 92 -327 92q-61 0 -94 -22.5t-33 -81.5l2 -447l24 -2q135 0 195 88q51 76 51 217h90v-702h-90q0 131 -47 205q-57 90 -182 90l-43 -2l-2 -475 q0 -68 43 -90q31 -16 102 -17h31q209 0 311 123q88 104 113 324h94v-541h-1202z" />
<glyph unicode="F" horiz-adv-x="1308" d="M-12 0v92h49q92 0 122.5 33t30.5 127v926q0 84 -26.5 121.5t-108.5 37.5l-67 -4v97h1235l10 -504h-94q-20 211 -99 303q-90 106 -292 106l-107 2q-74 0 -107.5 -27.5t-33.5 -101.5v-428h24q133 0 203 80t70 211h90v-680h-90q0 152 -70 219.5t-227 67.5v-481q0 -63 39 -86 t106 -23l86 2v-90h-743z" />
<glyph unicode="G" horiz-adv-x="1646" d="M16 688q0 352 220.5 566t576.5 214q111 0 192.5 -26.5t190.5 -89.5l74 112h100l19 -573l-93 2q-55 231 -145 336q-115 133 -332 133q-254 0 -368 -234q-86 -176 -86 -460q0 -227 88 -385q109 -197 319 -197q164 0 229 49q76 57 76 217q0 129 -27.5 160t-154.5 31v96h688 l-2 -98l-74 2q-76 0 -100.5 -31t-24.5 -109v-430h-98l-76 185q-96 -96 -212.5 -140.5t-258.5 -44.5q-336 0 -528.5 188.5t-192.5 526.5z" />
<glyph unicode="H" horiz-adv-x="1646" d="M-29 -2v98l45 -2q94 0 123 21q37 27 37 116v1018q0 51 -40 69.5t-97 18.5l-62 -4v101h717l-2 -99l-49 2q-102 0 -128 -27.5t-26 -109.5v-59l-4 -123v-225h564v446q0 55 -38 77.5t-98 22.5l-61 -4v99h711v-101h-56q-82 0 -113.5 -24.5t-31.5 -106.5v-1016q0 -59 53 -80 q37 -14 109 -14h39v-92h-715v90l51 2q86 0 118 25.5t32 70.5v488h-564l2 -461q0 -90 62 -115q31 -12 139 -12v-90h-717z" />
<glyph unicode="I" horiz-adv-x="759" d="M-4 1333v92h709v-92q-135 0 -162 -20q-37 -29 -37 -158v-942q0 -61 27.5 -91t125.5 -30h46v-94h-707v96l43 -2q96 0 126 30t30 126l-2 887q0 145 -27 171.5t-172 26.5z" />
<glyph unicode="J" horiz-adv-x="1097" d="M20 328q0 98 50 172q57 84 151 84q68 0 110 -40t42 -108q0 -104 -110.5 -135t-110.5 -57q0 -72 71.5 -117t147.5 -45q111 0 159 113q37 84 37 208v824q0 70 -46 91t-122 21h-59v95h729l2 -93h-61q-74 0 -105 -25.5t-31 -98.5v-730q0 -236 -98 -364q-111 -145 -340 -146 q-164 0 -284 91q-131 98 -132 260z" />
<glyph unicode="K" horiz-adv-x="1517" d="M-25 -2v96h74q72 0 99.5 28t27.5 99v948q0 92 -18 123q-25 43 -111 43l-67 -4v94l714 2q-4 -14 -4 -30.5v-26.5l4 -35h-37.5t-38.5 2q-66 0 -99.5 -23.5t-33.5 -99.5v-552l527 581q10 10 20 22.5t10 28.5q0 27 -33.5 35t-74.5 8l-55 -2v92h575v-92h-49q-102 0 -158 -26 q-43 -20 -125 -103l-258 -274l387 -656q49 -84 86 -122q61 -66 131 -66l41 6v-94h-682v92l35 -2q41 0 73 10.5t32 44.5q0 27 -70 152q-61 113 -139 238q-53 84 -107 170q-59 -55 -86 -84q-47 -47 -78 -95v-333q0 -63 43 -87q29 -14 99 -14h53h8v-94h-715z" />
<glyph unicode="L" horiz-adv-x="1308" d="M-14 -2v98l43 -2q92 0 123.5 23.5t31.5 111.5v981q0 82 -37.5 105.5t-113.5 23.5h-45v95h739l2 -97l-67 2q-78 0 -113 -14q-55 -23 -55 -90v-1040q0 -47 26 -70q37 -31 123 -31h55q199 0 295 125q63 82 127 307h88l-14 -528h-1208z" />
<glyph unicode="M" horiz-adv-x="1857" d="M-63 2v94q27 0 50 -1t46 -1q68 0 97.5 31t29.5 129v954q0 82 -45 109q-31 18 -113 18h-59v92h555l370 -972l363 981h538v-99h-61q-74 0 -107.5 -24.5t-33.5 -98.5l2 -1001q0 -78 45 -102q33 -18 110 -19h43v-94h-708l2 94h49q72 0 104 19q45 25 46 90v1009 q-55 -154 -150 -403q-78 -203 -154 -404q-94 -250 -149 -403h-98l-445 1194v-999q0 -57 39 -80t100 -23l56 4v-94h-522z" />
<glyph unicode="N" horiz-adv-x="1517" d="M-25 2v96q104 0 148 31q53 37 53 141l2 981q-37 55 -80 73.5t-118 18.5v95h444l729 -971v659q0 109 -45 163t-154 54v95h502v-95q-129 0 -172 -65q-33 -51 -33 -191v-1097h-127q-422 561 -843 1124v-291l2 -565q0 -98 53 -133q43 -29 145 -29v-94h-506z" />
<glyph unicode="O" horiz-adv-x="1560" d="M20 717q0 322 203 534.5t522 212.5q307 0 510 -213q197 -207 197 -518q0 -324 -197 -536q-203 -221 -524 -222q-309 0 -510 215.5t-201 526.5zM362 731q0 -342 119 -514q99 -141 271 -141q203 0 290 243q61 170 62 416q0 319 -107 488q-90 141 -243 141q-217 0 -318 -221 q-74 -164 -74 -412z" />
<glyph unicode="P" horiz-adv-x="1308" d="M-14 1335v92h729q236 0 368 -90q160 -109 160 -331q0 -190 -125 -291q-100 -80 -289 -107q-119 -16 -331 -16v-377q0 -72 45 -100q35 -23 110 -23l86 2v-94h-751v96l65 -2q74 0 104.5 25.5t30.5 99.5v985q0 72 -35.5 103.5t-107.5 31.5zM498 688h34q186 0 275.5 78 t89.5 262q0 139 -68 221q-74 88 -211 88q-47 0 -83.5 -20.5t-36.5 -65.5v-563z" />
<glyph unicode="Q" horiz-adv-x="1560" d="M18 709q0 324 198 537.5t521 213.5q324 0 518.5 -212t194.5 -539q0 -197 -75 -341.5t-236 -275.5q14 -66 53 -117q47 -65 104 -65q41 0 74 35q23 25 43 71l90 -34q-37 -121 -114 -201q-90 -92 -205 -92q-125 0 -203 86t-78 211q-51 -8 -96 -10.5t-107 -2.5 q-293 0 -491 224q-190 215 -191 512zM358 700q0 -102 31 -256q23 -104 33 -155q55 137 100 184q70 74 193 74q98 0 190 -68q84 -61 137 -155q37 115 49.5 225t12.5 258q0 209 -78 360q-98 193 -287 193q-211 0 -309 -238q-72 -174 -72 -422zM530 246q0 -29 6.5 -51.5 t22.5 -67.5q51 -33 83 -44t87 -11q78 0 162 39v51q0 119 -37 194q-49 100 -156 101q-76 0 -122 -65.5t-46 -145.5z" />
<glyph unicode="R" horiz-adv-x="1517" d="M-20 2v94h57q74 0 102 19q41 27 41 104l2 408l6 565v8q0 139 -149 139l-55 -4l2 95l663 2q201 0 289 -13q166 -23 256 -96q113 -92 113 -260q0 -156 -115 -240q-94 -70 -262 -90q201 -96 262 -426q25 -135 92 -135q33 0 59.5 32t40.5 105l82 -12q-16 -145 -99 -230 t-226 -85q-123 0 -201 96q-70 88 -82 217q-25 279 -29 289q-45 118 -248 118h-3h-93v-509q0 -59 45 -80q31 -14 101 -15h55v-96h-706zM481 795h203q127 0 208 76.5t81 203.5q0 152 -99 213q-82 51 -239 51q-72 0 -113 -27.5t-41 -94.5v-422z" />
<glyph unicode="S" horiz-adv-x="1222" d="M61 2v526h95q68 -199 176 -315q135 -145 319 -145q94 0 166 53q80 59 80 151q0 154 -213 234q-199 70 -395 139q-215 113 -215 344q0 203 132 337t335 134q109 0 173 -22.5t165 -89.5l71 110h94v-547h-96q-20 174 -119 301q-113 147 -274 148q-102 0 -178 -47 q-90 -57 -90 -154q0 -156 213 -229q385 -133 395 -139q215 -123 215 -392q0 -180 -139.5 -303t-321.5 -123q-123 0 -230.5 34t-199.5 108l-69 -113h-89z" />
<glyph unicode="T" horiz-adv-x="1435" d="M-12 909l22 525h1321l29 -527l-96 -12q-25 221 -119 326q-105 118 -318 118h-4v-1132q0 -72 56 -96q35 -16 116 -17h47v-96h-745v96l74 -2q76 0 106 23q39 29 39 100v1124q-207 0 -309 -120q-86 -100 -125 -320z" />
<glyph unicode="U" horiz-adv-x="1517" d="M-37 1337v97h709l-2 -97l-43 2q-86 0 -121 -25.5t-35 -109.5v-657q0 -203 61 -318q81 -151 267 -151h2q170 0 260 102q110 126 110 439v6l3 596q0 68 -38 94t-106 26l-61 -4v97h510v-95h-54q-61 0 -96 -15t-45 -60t-13 -80t-3 -90v-54q0 -66 4 -220t4 -167 q0 -332 -96 -485q-123 -197 -437 -197q-319 0 -449 134.5t-130 457.5v641q0 137 -139 137z" />
<glyph unicode="V" horiz-adv-x="1435" d="M-51 1339v95h618v-95q-68 0 -92 -10q-45 -18 -45 -76q0 -20 76 -215.5t149 -382.5q53 -131 107 -262q49 102 115 250q92 207 143 340q72 186 72 240q0 76 -111 104q-55 14 -100 14v95h510v-99q-25 -6 -55.5 -19t-47.5 -28q-47 -37 -141 -258q-33 -80 -66 -158l-374 -884 h-111q-31 49 -57.5 117.5t-49.5 134.5q-84 217 -165 434q-74 193 -172 432q-35 82 -58 121q-45 76 -90 94z" />
<glyph unicode="W" horiz-adv-x="1982" d="M-72 1333v92h613v-90h-19q-61 0 -96 -17.5t-35 -72.5q0 -45 58 -219q43 -133 116 -328q47 -125 94 -247q68 186 103 288q57 168 90 295q-29 92 -55 185q-49 118 -128 118h-1l-31 -4v97h618l-2 -95l-55 2q-33 0 -59.5 -17t-26.5 -50q0 -41 59 -221q45 -139 119 -340 q45 -127 92 -252q86 236 142 399q109 315 108 367q0 84 -94 104q-39 8 -100 8h-35v92h520v-92q-94 -14 -133 -55q-31 -33 -66 -131l-176 -518q-72 -217 -78 -236q-100 -301 -129 -395h-124l-310 877l-289 -877h-129l-434 1235q-20 61 -42.5 79.5t-84.5 18.5z" />
<glyph unicode="X" horiz-adv-x="1601" d="M-57 0v96q139 14 243 109q115 129 181 201q92 100 139 152t80 93q-205 270 -439 557q-59 70 -81 88q-51 41 -115 41h-8v90h680v-86q-49 0 -84 -11t-35 -50q0 -29 129 -195q82 -104 164 -206q84 90 168 182q125 143 125 188q0 51 -56.5 70.5t-118.5 19.5l-43 -2v97h605 v-93q-90 0 -162 -49q-27 -18 -197 -205l-262 -282q80 -94 178 -219q115 -152 172 -226q68 -90 135 -180q88 -92 199 -92h8v-90h-714l2 96l18 -2q39 0 66 10q41 16 41 50q0 27 -138 202q-25 31 -174 215q-90 -98 -180 -194q-137 -156 -137 -195q0 -49 69 -71q49 -16 111 -17 l49 2v-94h-618z" />
<glyph unicode="Y" horiz-adv-x="1476" d="M-43 1341v95h690l2 -95h-31q-49 0 -84.5 -15t-35.5 -58q0 -45 135 -258q88 -135 176 -271q80 127 160 256q123 205 123 246q0 59 -64 82q-41 14 -125 14h-45v97h588v-97h-8q-78 0 -133.5 -34.5t-98.5 -106.5l-344 -561v-432q0 -66 41 -90q31 -18 96 -19h34t36 2v-98h-754 v96l86 -2q88 0 121 24.5t33 71.5v373q-115 186 -186 303q-117 190 -191 301q-61 96 -80 115q-49 53 -118 59z" />
<glyph unicode="Z" horiz-adv-x="1267" d="M29 -8v108q86 143 243 412q186 315 244 412q135 225 252 407l-121 2q-236 0 -350 -102q-106 -94 -162 -334h-90v537h1094v-105q-109 -168 -254 -405q-84 -139 -246 -410l-246 -414l225 -2q172 0 261 68q76 57 149 227q31 74 45 133h94l2 -55q0 -90 -11 -255t-11 -224 h-1118z" />
<glyph unicode="[" horiz-adv-x="505" d="M53 -293v1731h414v-115h-219v-1511h219v-105h-414z" />
<glyph unicode="\" horiz-adv-x="569" d="M-35 1509h135l504 -1548h-137z" />
<glyph unicode="]" horiz-adv-x="505" d="M18 -184h226v1507h-219v102h411v-1720h-418v111z" />
<glyph unicode="^" horiz-adv-x="0" d="M-369 1552q25 33 74 98t135 167h307l211 -263h-157l-205 123q-35 -20 -107 -63q-61 -37 -112 -62h-146z" />
<glyph unicode="_" horiz-adv-x="1138" d="M0 -154h1139v-102h-1139v102z" />
<glyph unicode="`" horiz-adv-x="0" d="M-244 1323q0 41 34 70.5t77 29.5q84 0 229 -159q55 -63 113 -127l-37 -56l-295 99q-59 20 -86 49q-35 37 -35 94z" />
<glyph unicode="a" horiz-adv-x="1054" d="M27 201q0 125 98 213q78 70 225 121q92 31 240 63v41q0 102 -29 154q-38 69 -130 69h-3q-43 0 -74.5 -20.5t-31.5 -63.5q0 -12 12 -51q6 -20 6 -35q0 -51 -32 -87t-81 -36q-129 0 -129 131q0 135 142 209q115 59 262 60q168 0 258 -75t90 -243l2 -418q0 -39 8 -60t25 -21 q14 0 26.5 10t20.5 28l88 -28q-31 -86 -74 -125q-51 -47 -135 -47q-57 0 -96 22.5t-107 116.5q-102 -74 -155 -98q-84 -39 -181 -39q-100 0 -172.5 55t-72.5 154zM274 266q0 -49 41 -84t91 -35q49 0 100 31q37 23 86 68v250q-123 -16 -205 -62q-113 -63 -113 -168z" />
<glyph unicode="b" horiz-adv-x="1179" d="M-41 1317v86q115 0 211 6q139 12 209 18v-591q70 57 142.5 87.5t154.5 30.5q193 0 301 -149q96 -133 96 -332q0 -193 -119 -340q-127 -156 -313 -156q-111 0 -188.5 41t-151.5 132q-31 -27 -58.5 -65t-56.5 -85h-94q8 63 15.5 122.5t7.5 104.5v961q0 88 -37 112 q-25 16 -119 17zM373 434q0 -135 39 -227q55 -131 170 -131q121 0 172 139q32 87 32 235v9q0 156 -28 237q-47 133 -172 133q-127 0 -178 -143q-35 -96 -35 -252z" />
<glyph unicode="c" horiz-adv-x="970" d="M41 498q0 209 142.5 334.5t353.5 125.5q154 0 254 -67q116 -79 116 -223q0 -70 -39 -111t-108 -41q-55 0 -88 47t-33 105q0 29 17.5 61.5t35.5 67.5q0 31 -37 48t-71 17q-137 0 -201 -119q-51 -94 -51 -243q0 -188 69 -297q55 -86 148 -86q115 0 184 61q6 6 129 154 l80 -53q-102 -152 -182 -213q-111 -86 -264 -86q-215 0 -340 155q-115 143 -115 363z" />
<glyph unicode="d" horiz-adv-x="1222" d="M41 481q0 197 111 334q119 145 313 146q84 0 151 -31q20 -10 134 -78v389q0 55 -52 72q-27 8 -100 8v88q229 0 422 23v-1227q0 -78 27 -101q18 -16 81 -16h43v-86l-423 -27v82q-66 -39 -119.5 -60.5t-112.5 -21.5q-225 0 -350 139.5t-125 366.5zM340 461q0 -145 37 -244 q53 -145 172 -145t170 131q37 92 37 233q0 160 -31 250q-49 145 -178 145q-121 0 -172 -133q-35 -90 -35 -237z" />
<glyph unicode="e" d="M33 459q0 203 132 351t333 148q211 0 321 -159q96 -139 96 -363h-581q14 -137 55 -219q59 -119 172 -119q86 0 164 68q49 41 117 139l86 -45q-90 -145 -176 -207q-104 -76 -260 -76q-209 0 -334 135.5t-125 346.5zM328 530h331v48q0 102 -30 178q-43 104 -129 104 q-94 0 -140 -125q-32 -87 -32 -198v-7z" />
<glyph unicode="f" horiz-adv-x="759" d="M14 -2v92h47q57 0 80 14q33 20 33 74v645h-154v115h154q0 100 12.5 166.5t53.5 132.5q53 84 147 140.5t191 56.5q115 0 190 -56q88 -63 88 -174q0 -55 -39 -98t-96 -43q-53 0 -96 41t-43 96q0 14 6 45t6 45q0 31 -39 31q-61 0 -92 -164q-20 -109 -21 -219h236v-115h-236 v-635q0 -57 25 -79.5t82 -22.5l80 2v-90h-615z" />
<glyph unicode="g" horiz-adv-x="1054" d="M4 -152q0 63 59 113q51 41 121 57q-70 39 -100 72q-47 49 -47 115q0 68 63 114q25 18 125 66q-94 61 -119 84q-65 62 -65 201q0 135 143 219q123 72 267 72q51 0 97 -8.5t116 -26.5q49 61 92 92q57 41 123 41q63 0 104 -31t41 -92q0 -43 -26.5 -63.5t-69.5 -20.5 q-31 0 -52.5 23.5t-35.5 56.5q-14 14 -31 14q-20 0 -43 -20.5t-37 -42.5q66 -43 98.5 -95.5t32.5 -125.5q0 -180 -147 -250q-72 -35 -277 -60q-149 -18 -149 -68q0 -52 313 -67q174 -8 240 -57q51 -37 79.5 -85t28.5 -108q0 -150 -108 -229q-129 -94 -424 -94 q-143 0 -252 37q-160 53 -160 167zM147 -158q0 -66 119 -88q66 -12 172 -12q102 0 170 14q121 27 121 90q0 78 -106 109q-70 20 -174 20q-102 0 -181 -22q-121 -35 -121 -111zM287 641q0 -84 40 -142.5t122 -58.5q78 0 122 68q39 59 39 141q0 80 -37 137q-43 68 -118 68 q-88 0 -128 -60.5t-40 -152.5z" />
<glyph unicode="h" horiz-adv-x="1308" d="M-6 1315v94q106 0 193 5t227 18l-2 -629q94 78 166 112q96 47 196 48q143 0 231.5 -90.5t88.5 -235.5v-455q0 -61 47 -82q29 -12 102 -12v-92h-567l-2 90l49 2q37 0 56.5 10.5t45.5 40.5l6 43v424q0 90 -34 142q-43 61 -129 61q-80 0 -144 -47q-25 -18 -110 -107v-485 q0 -57 51 -74q31 -10 100 -10v-88h-567v90q78 0 104 12q45 20 45 90v998q0 90 -28.5 108.5t-124.5 18.5z" />
<glyph unicode="i" horiz-adv-x="630" d="M23 0v88l34 -2q61 0 88 20.5t27 81.5v555q0 102 -113 103l-36 -4v92q90 0 197.5 7t225.5 20v-787q0 -55 35 -74q23 -12 82 -12h33v-88h-573zM111 1264q0 68 44.5 112.5t114.5 44.5q68 0 114 -46t46 -113q0 -66 -47 -111t-113 -45q-61 0 -110 47t-49 111z" />
<glyph unicode="j" horiz-adv-x="548" d="M-164 -207q0 41 29 72t72 31q74 0 101.5 -50.5t41.5 -66.5l12 -6q18 0 25.5 35.5t7.5 60.5l6 303l-6 571q0 63 -31 83t-92 20h-37v86q109 0 162 2t256 20v-878q0 -168 -88 -287q-98 -131 -260 -131q-70 0 -127 31q-72 39 -72 104zM96 1272q0 68 50 108.5t120 40.5 q61 0 104.5 -47t43.5 -110t-46 -109.5t-110 -46.5q-72 0 -117 45t-45 119z" />
<glyph unicode="k" horiz-adv-x="1179" d="M-6 0v90l55 -2q61 0 82 22.5t21 86.5v1046q0 39 -28 59.5t-106 20.5h-24l2 88q221 0 424 21v-992q115 109 196 189q160 156 160 180q0 29 -47 35t-78 6h-39v92h465v-94q-113 -14 -250 -139q-63 -61 -127 -121l164 -244q55 -82 111 -164q72 -86 166 -94v-88h-531v90h19 q27 0 44 7t17 30q0 10 -49 88q-61 98 -129 193l-94 -87v-147q0 -39 23.5 -62.5t97.5 -23.5v-86h-545z" />
<glyph unicode="l" horiz-adv-x="630" d="M20 2v88l39 -2q45 0 72 10q39 16 39 56v1071q0 61 -24.5 77.5t-79.5 16.5h-46l3 86q98 0 199.5 7t217.5 22v-1227q0 -88 35 -109q23 -12 119 -12v-84h-574z" />
<glyph unicode="m" horiz-adv-x="1937" d="M14 844v88q63 0 156 8q209 18 262 18l2 -163q86 74 162 112q98 51 190 51q102 0 166 -55q23 -20 113 -141q68 84 172 138t211 54q188 0 262 -174q51 -121 51 -338l-6 -252q0 -72 43 -90q23 -10 109 -10v-90h-572v88h29q59 0 89 18.5t30 75.5v385q0 94 -33 154 q-43 76 -129 76q-68 0 -131 -41q-41 -27 -105 -92v-457q0 -82 39 -105q25 -14 117 -14v-86h-567l-2 88l35 -2q66 0 93 20.5t27 86.5v383q0 92 -36 149q-45 70 -134 70q-76 0 -127 -41q-59 -59 -100 -92v-490q0 -68 57.5 -76t96.5 -12v-82h-568v84q70 0 95 8q53 18 53 72v514 q0 90 -10 115q-20 51 -97 51z" />
<glyph unicode="n" horiz-adv-x="1308" d="M-4 0v92h33q53 0 80 12q39 18 38 66v590q0 49 -32.5 64.5t-87.5 15.5h-31v94h53q184 0 367 24v-167q72 72 172 121t194 49q168 0 248 -123q68 -104 68 -281l-2 -393q0 -47 33.5 -61.5t87.5 -14.5h30v-90h-571v90h41q53 0 83.5 16.5t30.5 67.5v453q0 80 -44 130t-121 50 q-76 0 -146 -49q-51 -37 -108 -111l-2 -442q0 -80 36 -103q25 -14 117 -14v-86h-567z" />
<glyph unicode="o" horiz-adv-x="1138" d="M31 465q0 215 149.5 354t368.5 139q209 0 353.5 -136t144.5 -345q0 -219 -144.5 -359.5t-363.5 -140.5q-205 0 -356.5 141.5t-151.5 346.5zM324 492q0 -164 34 -265q54 -153 187 -153q123 0 178 149q39 106 39 256q0 137 -41 242q-57 145 -172 145q-125 0 -182 -133 q-43 -100 -43 -241z" />
<glyph unicode="p" horiz-adv-x="1222" d="M-18 -225h43q66 0 88 22.5t22 89.5v846q0 78 -33.5 95.5t-119.5 17.5v86l47 2q84 0 182 6t190 16v-104q117 68 129 74q64 30 139 30h5q201 0 325 -145q119 -139 119 -344q0 -195 -106 -336q-119 -156 -307 -156q-66 0 -129.5 22.5t-174.5 100.5v-211q0 -78 41 -98 q27 -14 113 -14v-90h-573v90zM420 479q0 -160 33 -246q51 -133 184 -133q117 0 164 150q30 95 30 237v9q0 135 -38 225q-55 127 -170 127q-117 0 -168 -133q-35 -92 -35 -236z" />
<glyph unicode="q" horiz-adv-x="1179" d="M33 424q0 139 33 233q41 115 137 193q57 47 132 77.5t148 30.5q143 0 238 -81q14 -12 117 -117l114 172h88q-28 -123 -28 -265v-10v-802q0 -53 35 -72q25 -12 79 -12h33v-90h-569v90l33 -2q70 0 95 20.5t25 85.5l-4 213q-59 -49 -135 -81t-149 -32q-180 0 -301 133.5 t-121 315.5zM328 471q0 -143 34 -235q52 -138 173 -138q113 0 163 131q37 94 37 230q0 158 -30 248q-49 143 -177 143q-123 0 -170 -137q-30 -85 -30 -232v-10z" />
<glyph unicode="r" horiz-adv-x="845" d="M6 0v90l41 -2q66 0 91.5 23.5t25.5 89.5l-2 524q0 61 -22.5 90t-84.5 29l-49 -4v92q94 0 202.5 6t213.5 16v-182q51 82 90 121q66 63 135 63q70 0 123 -47t53 -118q0 -70 -42 -120t-111 -50q-39 0 -67 33.5t-28 74.5q0 16 9.5 37.5t17.5 42.5q-2 10 -14 10 q-55 0 -113 -172q-49 -147 -49 -225v-275q0 -41 74 -53q39 -6 73 -6h29h19v-88h-615z" />
<glyph unicode="s" horiz-adv-x="888" d="M59 643q0 133 103.5 224t238.5 91q55 0 121 -20q39 -12 115 -45l22 41h89v-297h-93q-27 106 -82 162q-63 63 -167 63q-61 0 -108.5 -26.5t-47.5 -83.5q0 -76 143 -117q229 -68 271 -90q145 -84 145 -258q0 -137 -95.5 -224.5t-234.5 -87.5q-70 0 -138.5 22.5t-143.5 61.5 l-43 -57h-93v342h91q0 -115 93 -192.5t212 -77.5q72 0 108 22q47 29 47 97q0 82 -143 122q-240 70 -266 84q-143 76 -144 244z" />
<glyph unicode="t" horiz-adv-x="759" d="M-27 823v109h11q143 0 225 121q61 92 88 254h111v-373h241v-109h-239v-518q0 -86 30 -121q24 -28 71 -28h3q61 0 92 88q23 66 23 143h94q0 -184 -74 -285q-85 -116 -259 -116h-3q-133 0 -194 88q-53 76 -54 217v530h-166z" />
<glyph unicode="u" horiz-adv-x="1267" d="M-31 844v90l422 24v-598q0 -106 31 -157q39 -66 139 -66q106 0 166 90q51 78 51 193v252q0 113 -18 137q-27 35 -135 35v90l417 22v-759q0 -72 26 -90.5t87 -18.5h41v-90l-418 -16v161q-78 -78 -167 -123t-191 -45q-158 0 -232 103q-63 88 -63 254v385q0 68 -20.5 99.5 t-86.5 31.5z" />
<glyph unicode="v" horiz-adv-x="970" d="M-31 846v86h490v-92h-15q-33 0 -58.5 -9.5t-25.5 -35.5q0 -47 72 -230l98 -246q47 96 103 228q72 174 72 227q0 43 -42 54.5t-102 11.5v94h377v-96q-61 -6 -79.5 -20.5t-43.5 -72.5q-53 -127 -104 -251q-70 -168 -105 -254q-51 -127 -100 -254h-119l-211 526 q-33 84 -47 125q-23 61 -51 125q-18 43 -40 58.5t-69 25.5z" />
<glyph unicode="w" horiz-adv-x="1517" d="M-47 844v90h475v-88q-27 0 -51 -6q-63 -16 -64 -54q0 -14 49 -135q63 -154 132 -307l151 369q-33 80 -45 96q-27 33 -98 39v86h526v-90q-49 0 -86 -11.5t-37 -50.5q0 -37 103 -282q33 -80 67 -158q31 55 96 219q74 182 74 213q0 43 -33.5 56.5t-89.5 17.5v84h348l-2 -84 q-39 -12 -67.5 -30.5t-44.5 -51.5l-31 -78l-74 -174q-70 -166 -108 -260q-57 -139 -101 -266h-112l-234 583l-237 -581h-113l-24 65q-18 49 -80 271q-86 309 -201 426q-18 47 -29 61q-23 31 -59 31z" />
<glyph unicode="x" horiz-adv-x="970" d="M-35 2v88q63 6 90 18.5t66 59.5l211 240l-176 260q-37 55 -74 112q-51 61 -113 68v86h480v-88q-25 -2 -43.5 -10.5t-18.5 -28.5l4 -19l117 -174q39 45 80 91q59 72 59 96q0 29 -36 37t-76 8v88h407l-2 -92l-18 2q-86 0 -144 -60l-213 -247l172 -263q41 -61 82 -120 q55 -66 125 -66v-88h-489l-2 92q25 2 41 10.5t18 24.5l-4 25q-18 33 -59 90q-33 43 -64 88q-47 -53 -74 -88q-53 -68 -53 -92q0 -35 39 -49.5t80 -14.5v-84h-412z" />
<glyph unicode="y" horiz-adv-x="1054" d="M-39 842v90h516v-84q-39 -4 -64.5 -17.5t-25.5 -46.5q0 -12 57 -139q76 -164 152 -326q31 63 111 240q90 199 90 221q0 43 -64 56q-78 6 -98 8v90h389v-94h-10q-66 0 -90 -33q-25 -53 -41 -92l-351 -768q-59 -133 -147 -207q-102 -88 -235 -88q-72 0 -122.5 37t-50.5 104 q0 51 34 89t81 38q70 0 112 -64.5t60 -64.5q41 0 107 90q47 66 80 133l-263 570q-35 80 -67 161q-53 100 -129 101z" />
<glyph unicode="z" d="M35 0v94q102 131 187 250t175 244q133 186 178 248l-43 2q-184 0 -260 -45q-96 -57 -129 -228h-88l29 367h813v-107l-373 -514q-51 -74 -78 -110q-49 -68 -88 -105l93 -4q158 0 245 51q106 63 138 207l6 29h82l-23 -379h-864z" />
<glyph unicode="{" horiz-adv-x="684" d="M86 479v123q113 0 147 137q16 66 17 230l-2 88q0 193 22 268q45 154 191 154h137v-133h-90q-55 0 -74.5 -51.5t-19.5 -116.5v-232l-2 -117q0 -88 -47 -172q-53 -94 -132 -114q113 -37 154 -170q27 -88 27 -242l-2 -178q0 -92 10 -135q20 -86 86 -86h90v-133h-137 q-96 0 -152.5 81.5t-56.5 182.5v350q0 96 -35 170q-45 96 -131 96z" />
<glyph unicode="|" horiz-adv-x="532" d="M193 -39v1548h149v-1548h-149z" />
<glyph unicode="}" horiz-adv-x="684" d="M86 -268h90q63 0 84 84q10 43 10 137l-2 176q0 156 27 242q41 133 156 168q-78 23 -129.5 112.5t-51.5 175.5v351q0 70 -14 106q-23 61 -80 62h-90v133h137q131 0 180 -131q33 -86 33 -261q0 -33 -1 -62.5t-1 -55.5q0 -162 17 -228q35 -139 147 -139v-123q-84 0 -129 -96 q-37 -78 -37 -170v-350q0 -102 -51 -178q-59 -86 -158 -86h-137v133z" />
<glyph unicode="~" horiz-adv-x="0" d="M-395 1548q20 125 59 183q55 81 168 81q59 0 143 -22q190 -51 238 -51q31 0 48.5 21.5t25.5 54.5h88q0 -98 -51 -177q-59 -90 -152 -90q-68 0 -197 45t-192 45q-37 0 -57.5 -24.5t-30.5 -65.5h-90z" />
<glyph horiz-adv-x="1079" d="M8 268v107h371l151 274h-522v109h584l178 321l96 -55l-149 -266h323v-109h-383l-153 -274h536v-107h-594l-178 -317l-96 55l145 262h-309z" />
<glyph horiz-adv-x="1398" d="M23 524q0 111 83.5 191t194.5 80q96 0 203 -70q55 -37 172 -141q113 104 170 141q107 70 205 70q111 0 192.5 -80t81.5 -193q0 -111 -77 -194.5t-185 -83.5q-113 0 -213 65q-35 23 -174 146q-139 -123 -174 -146q-100 -66 -215 -65q-109 0 -186.5 86t-77.5 194zM125 510 q0 -72 56.5 -122t129.5 -50q82 0 166 59q33 25 135 121q-92 80 -143 113q-92 61 -168 61q-72 0 -124 -54t-52 -128zM741 518q94 -90 136 -119q83 -59 167 -59q74 0 129.5 48t55.5 122q0 72 -51.5 127t-124.5 55q-76 0 -168 -59q-47 -31 -144 -115z" />
<glyph horiz-adv-x="1202" d="M-12 0l628 1352l555 -1352h-1183zM117 96h811l-383 920z" />
<glyph horiz-adv-x="970" d="M18 741l383 723h117l381 -723l-381 -741h-117zM137 741l322 -635l323 635l-323 617z" />
<glyph horiz-adv-x="1353" />
<glyph unicode="&#xa1;" horiz-adv-x="591" d="M63 1262q0 74 54.5 124t130.5 50q72 0 118 -54.5t46 -128.5t-52.5 -120t-128.5 -46q-66 0 -117 53.5t-51 121.5zM68 201q0 51 4 78.5t41 156.5t55 273.5t18 289.5h109q0 -121 15.5 -240.5t45.5 -256.5q18 -68 39 -142.5t21 -130.5q0 -106 -37 -166q-45 -72 -148 -71 q-78 0 -120.5 64.5t-42.5 144.5z" />
<glyph unicode="&#xa2;" horiz-adv-x="970" d="M41 518q0 188 117.5 311t308.5 146v149h88l-2 -147q147 0 244 -70q111 -80 110 -221q0 -68 -39 -108.5t-108 -40.5q-55 0 -88 47t-33 104q0 29 17.5 61.5t35.5 67.5q0 31 -34.5 47.5t-71.5 16.5h-31l2 -744q111 0 180 64q10 8 125 151l80 -53q-117 -172 -207 -231 q-80 -53 -180 -64v-129h-88v127q-201 0 -320 160q-106 145 -106 356zM332 520q0 -111 26 -198q35 -119 109 -162l-2 692q-74 -43 -103.5 -135t-29.5 -197z" />
<glyph unicode="&#xa3;" horiz-adv-x="1308" d="M-14 188q0 119 80.5 184.5t203.5 65.5q47 0 105.5 -12t107.5 -31q-20 66 -38.5 113t-55.5 123h-237v104h188q-18 39 -35.5 116t-17.5 128q0 166 126 288t292 122q156 0 258 -60q127 -74 127 -217q0 -66 -41 -117t-105 -51q-57 0 -92 33t-35 90q0 41 43 102q23 33 23 45 q0 33 -22.5 48.5t-57.5 15.5q-90 0 -153.5 -61.5t-63.5 -153.5q0 -68 16 -129q4 -18 76 -201h305v-102h-268v-39q0 -104 -7.5 -145t-27.5 -103q100 -41 160.5 -56.5t105.5 -15.5q72 0 113 26t82 89l92 -31q-51 -205 -143 -301q-78 -80 -179 -80q-88 0 -184 56 q-51 29 -162 116q-74 -78 -162 -124t-186 -46q-94 0 -162.5 58.5t-68.5 152.5zM106 195q0 -45 40 -77t85 -32q70 0 144 48t94 114q-63 51 -90 65q-50 27 -111 27q-66 0 -114 -40t-48 -105z" />
<glyph unicode="&#xa7;" horiz-adv-x="888" d="M47 588q0 74 26.5 132t135.5 175q-70 113 -82 145q-18 48 -18 103q0 131 97 220t232 89q113 0 189 -49q90 -57 90 -164q0 -49 -34 -89t-83 -40q-45 0 -75.5 28.5t-30.5 75.5q0 14 6 45t6 46q0 23 -22.5 36t-47.5 13q-63 0 -106 -35t-43 -96q0 -80 131 -203 q121 -111 241 -221q133 -139 134 -260q0 -61 -30 -125t-128 -172q74 -143 78 -156q18 -51 18 -106q0 -133 -106 -216q-98 -76 -236 -75q-109 0 -182 45q-90 55 -90 157q0 55 32.5 94.5t88.5 39.5q43 0 73.5 -27t30.5 -72q0 -18 -5 -51t-5 -39q0 -35 45 -47q23 -6 43 -6 q55 0 96 37t41 96q0 76 -131 197q-123 111 -246 223q-133 139 -133 252zM215 711q0 -82 121 -197q78 -68 104 -92l131 -121q29 35 41.5 65.5t12.5 77.5q0 63 -150 203q-104 94 -209 191q-16 -31 -33.5 -64t-17.5 -63z" />
<glyph unicode="&#xa8;" horiz-adv-x="0" d="M-342 1300q0 55 37 96.5t94 41.5q61 0 98 -39t37 -99q0 -51 -41 -87.5t-92 -36.5q-49 0 -91 37.5t-42 86.5zM61 1327q0 47 47.5 78t98.5 31q49 0 85 -42t36 -94q0 -49 -37 -87.5t-86 -38.5q-72 0 -108 39.5t-36 113.5z" />
<glyph unicode="&#xa9;" horiz-adv-x="1550" d="M68 649q0 281 198 479.5t479 198.5t479.5 -198.5t198.5 -479.5q0 -283 -197.5 -480.5t-480.5 -197.5q-281 0 -479 199t-198 479zM145 649q0 -248 176 -424t424 -176t424.5 176t176.5 424t-176.5 424t-424.5 176t-424 -176t-176 -424zM377 633q0 162 104.5 276.5 t261.5 114.5q39 0 109 -19.5t100 -19.5q39 0 47 33h37l8 -252h-38q-16 90 -81 148.5t-155 58.5q-123 0 -199 -111q-68 -98 -67 -227q0 -137 66.5 -223t199.5 -86q84 0 131 21.5t125 84.5l23 -35q-68 -72 -136.5 -107.5t-156.5 -35.5q-170 0 -274.5 104.5t-104.5 274.5z" />
<glyph unicode="&#xab;" d="M25 461l356 442h117l-234 -444l234 -441h-117q-68 80 -135 162q-111 135 -221 281zM446 463l363 440h119l-244 -440l238 -445h-111z" />
<glyph unicode="&#xac;" horiz-adv-x="1398" d="M2 459v106h1309v-565h-109v459h-1200z" />
<glyph unicode="&#xad;" horiz-adv-x="925" d="M47 350v266h789v-266h-789z" />
<glyph unicode="&#xae;" horiz-adv-x="1550" d="M66 639q0 281 198.5 479.5t478.5 198.5q281 0 479.5 -198.5t198.5 -479.5t-198.5 -479.5t-479.5 -198.5t-479 198.5t-198 479.5zM143 637q0 -250 176.5 -424t423.5 -174q248 0 424 176t176 424t-176 424t-426 176t-424 -176t-174 -426zM420 297v35q37 0 59 8q37 14 37 43 v567q0 35 -11 46.5t-38 11.5h-37v36h336q109 0 178 -36q90 -47 90 -148q0 -84 -58 -140t-142 -56l235 -304q25 -29 72 -28v-35h-187l-262 348h-51v-256q0 -33 26.5 -45t65.5 -12v-35h-313zM639 963l2 -273q106 0 168 25q92 37 92 129q0 84 -36 115.5t-122 39.5l-63 5 q-16 0 -28.5 -12.5t-12.5 -28.5z" />
<glyph unicode="&#xb0;" horiz-adv-x="630" d="M-100 1051q0 123 86 209t209 86q121 0 207.5 -87.5t86.5 -207.5q0 -121 -85.5 -207t-208.5 -86q-121 0 -208 85t-87 208zM-23 1051q0 -88 63.5 -151.5t154.5 -63.5q90 0 153.5 61t63.5 154q0 88 -65.5 151.5t-153.5 63.5q-90 0 -153 -62.5t-63 -152.5z" />
<glyph unicode="&#xb1;" horiz-adv-x="1079" d="M0 0v109h1038v-109h-1038zM0 694v109h465v465h108v-465h465v-109h-465v-467h-108v467h-465z" />
<glyph unicode="&#xb4;" horiz-adv-x="0" d="M-195 1130l117 123q47 55 94 113q61 64 127 64q49 0 80 -35t31 -86q0 -80 -100 -121q-70 -25 -99 -33q-106 -41 -215 -80z" />
<glyph unicode="&#xb5;" horiz-adv-x="1128" d="M41 -299q0 53 16 119q39 158 39 198v965h168v-653q0 -98 46 -162t141 -64q61 0 127.5 46.5t93.5 103.5v729h168v-756q0 -59 22 -104q31 -59 84 -60q55 0 76 46q16 63 29 92l39 -2q-23 -102 -76 -162q-63 -70 -164 -70q-86 0 -127 58q-29 39 -47 137q-59 -84 -133 -135 q-88 -59 -178 -60q-49 0 -86 17q-8 4 -113 79v-45q0 -55 31.5 -160.5t31.5 -154.5q0 -51 -22.5 -96t-69.5 -45t-71.5 44t-24.5 95z" />
<glyph unicode="&#xb6;" horiz-adv-x="1366" d="M180 1038q0 197 126 302.5t327 105.5h471v-111h-70v-1677h-119v1677h-294v-1677h-119v995q-152 25 -237 128.5t-85 256.5z" />
<glyph unicode="&#xb7;" horiz-adv-x="335" d="M27 590q0 70 46.5 119t116.5 49q61 0 107.5 -50.5t46.5 -113.5q0 -66 -47 -113t-115 -47q-63 0 -109 46t-46 110z" />
<glyph unicode="&#xb8;" horiz-adv-x="0" d="M-387 -279l43 91q86 -29 127 -43q80 -27 131 -27q29 0 57.5 9t28.5 34q0 29 -44 44t-75 9l94 189l113 -2q-31 -45 -51 -107q76 -10 121 -35q63 -35 63 -98q0 -76 -84 -117q-70 -35 -153 -35q-76 0 -189.5 27t-181.5 61z" />
<glyph unicode="&#xbb;" d="M27 18l241 441l-239 444l118 2q23 -39 68 -90q37 -43 76 -86q109 -135 219 -268q-152 -184 -225 -277q-94 -115 -140 -166h-118zM451 18q139 236 243 445l-237 440h114l363 -446l-361 -439h-122z" />
<glyph unicode="&#xbf;" horiz-adv-x="1054" d="M20 330q0 119 82 223q63 82 183 164q74 51 94 71q55 55 55 170v31h103v-39q0 -141 -106.5 -319t-106.5 -269q0 -109 51 -180q59 -82 166 -82q39 0 63.5 16.5t24.5 37.5q0 14 -43 90q-23 41 -23 75q0 70 40 116t110 46q78 0 125 -55t47 -135q0 -145 -144 -228 q-121 -70 -278 -69q-174 0 -297 78q-145 92 -146 258zM309 1276q0 68 53 117t121 49q72 0 123 -49.5t51 -122.5q0 -74 -51 -123t-125 -49q-76 0 -124 50t-48 128z" />
<glyph unicode="&#xc0;" horiz-adv-x="1435" d="M-51 0v96q121 0 190 154q39 102 56 145q68 176 135 355q113 297 135 354q70 182 139 354h135q59 -147 155.5 -392t158.5 -407q76 -201 153 -401q29 -74 71 -116t116 -56v-88h-629v96h37q41 0 72.5 10.5t31.5 42.5q0 57 -33.5 139.5t-64.5 155.5h-490q-29 -76 -45 -123 q-31 -88 -30 -118q0 -59 50 -82t116 -23l49 2v-98h-508zM350 1700q0 45 35 77.5t80 32.5q84 0 258 -104q70 -45 141 -88l-26 -74h-86q-158 0 -240 19q-162 37 -162 137zM358 543h414l-209 532q-47 -100 -106 -264q-82 -225 -99 -268z" />
<glyph unicode="&#xc1;" horiz-adv-x="1435" d="M-49 2v96q121 0 190 154q39 102 56 145q68 176 135 355q113 297 135 354q70 182 139 354h135q59 -147 155.5 -392t158.5 -406q76 -201 153 -402q29 -74 71 -116t116 -56v-88h-629v96h37q41 0 72.5 10.5t31.5 43.5q0 57 -33.5 139t-64.5 155h-490q-29 -76 -45 -122 q-31 -88 -30 -119q0 -59 50 -82t116 -23l49 2v-98h-508zM360 545h414l-209 532q-47 -100 -106 -264q-82 -225 -99 -268zM451 1602q119 82 188 127q133 83 201 83q43 0 79.5 -28.5t36.5 -69.5v-35q0 -94 -200 -127q-229 -20 -281 -24z" />
<glyph unicode="&#xc2;" horiz-adv-x="1435" d="M-51 0v96q121 0 190 154q39 102 56 145q68 176 135 355q113 297 135 354q70 182 139 354h135q59 -147 155.5 -392t158.5 -407q76 -201 153 -401q29 -74 71 -116t116 -56v-88h-629v96h37q41 0 72.5 10.5t31.5 42.5q0 57 -33.5 139.5t-64.5 155.5h-490q-29 -76 -45 -123 q-31 -88 -30 -118q0 -59 50 -82t116 -23l49 2v-98h-508zM279 1552q41 57 102 134q26 33 108 131h306l211 -263h-158l-203 125q-111 -63 -221 -127h-145zM358 543h414l-209 532q-47 -100 -106 -264q-82 -225 -99 -268z" />
<glyph unicode="&#xc3;" horiz-adv-x="1435" d="M-51 0v96q121 0 190 154q39 102 56 145q68 176 135 355q113 297 135 354q70 182 139 354h135q59 -147 155.5 -392t158.5 -407q76 -201 153 -401q29 -74 71 -116t116 -56v-88h-629v96h37q41 0 72.5 10.5t31.5 42.5q0 57 -33.5 139.5t-64.5 155.5h-490q-29 -76 -45 -123 q-31 -88 -30 -118q0 -59 50 -82t116 -23l49 2v-98h-508zM254 1548q27 162 86 217q49 47 139 47q61 0 144 -22q188 -51 237 -51q33 0 48.5 19.5t25.5 56.5h90q-25 -127 -53 -179q-51 -88 -154 -88q-68 0 -194.5 45t-192.5 45q-33 0 -52.5 -16t-33.5 -74h-90zM358 543h414 l-209 532q-47 -100 -106 -264q-82 -225 -99 -268z" />
<glyph unicode="&#xc4;" horiz-adv-x="1435" d="M-51 0v96q98 0 151 82q20 33 72 170q72 184 143.5 369.5t144 374t144.5 366.5h137q63 -164 129 -328q86 -219 129 -327q96 -246 127 -328q43 -119 86 -237q70 -143 181 -144v-96h-629l-2 96l49 -4q39 0 67.5 16.5t28.5 51.5q0 27 -61 180q-4 8 -41 100h-488 q-23 -61 -45 -123q-33 -92 -32 -120q0 -51 49 -78t168 -27v-90h-508zM293 1655q0 47 39 84t88 37q53 0 93 -40t40 -96q0 -51 -39 -90t-92 -39t-91 44t-38 100zM358 543h410l-205 532q-47 -109 -106 -264q-51 -133 -99 -268zM793 1638q0 55 37 96.5t94 41.5q55 0 93 -38 t38 -93q0 -59 -36 -97.5t-95 -38.5q-45 0 -88 41t-43 88z" />
<glyph unicode="&#xc5;" horiz-adv-x="1435" d="M-53 0v92l24 4q86 16 131 84q23 33 66 148l289 755q45 127 67 189q43 119 80 186h139l402 -1034q39 -106 80 -211q63 -119 172 -119v-94h-633v96l33 -6q45 0 69 10q41 16 41 54q0 35 -41 137q-53 131 -57 149l-490 2q-25 -61 -47 -120q-33 -90 -32 -119q0 -72 77 -97 q47 -14 140 -14v-92h-510zM358 543h410q-68 176 -100 264q-59 158 -105 266q-47 -98 -106 -262q-86 -236 -99 -268zM485 1688q0 88 56.5 138t146.5 50q72 0 123 -57.5t51 -128.5q0 -90 -56 -140.5t-147 -50.5q-70 0 -122 58.5t-52 130.5zM580 1683q0 -31 25.5 -60.5 t56.5 -29.5q43 0 74.5 26t31.5 69q0 37 -24.5 65.5t-61.5 28.5q-43 0 -72.5 -28t-29.5 -71z" />
<glyph unicode="&#xc6;" horiz-adv-x="2068" d="M-74 4v84q102 49 168 152l647 987q16 25 17 61q0 37 -46 49.5t-118 12.5q-23 0 -39 -1t-27 -1v90h1360l19 -508l-92 -2q-23 201 -105 299q-96 115 -289 114h-43q-80 0 -109.5 -22.5t-29.5 -101.5v-435l25 -2q139 0 198 88q49 72 49 219h91v-704h-95v18q0 152 -59 215.5 t-211 63.5v-494q0 -59 53 -80q33 -12 105 -12q219 0 323 117q90 100 121 330h94l-10 -541h-1241l-2 94l98 -2q68 0 103 19q47 25 47 86v419h-465q-68 -100 -133 -198q-88 -141 -88 -215q0 -53 32.5 -79t83.5 -26q18 0 29 2v-96h-461zM537 723l30 -4h365v624 q-109 -164 -201 -307q-109 -168 -194 -313z" />
<glyph unicode="&#xc7;" horiz-adv-x="1435" d="M31 668l2 98q0 311 202.5 501.5t522.5 190.5q106 0 182 -23.5t168 -84.5q18 23 39 53q15 20 35 55l102 -2q0 -156 6 -300t25 -282l-101 -16q-63 287 -184 406q-98 98 -246 98q-233 0 -335 -232q-74 -166 -74 -434q0 -258 78 -407q104 -201 338 -201q184 0 305 125 q106 111 151 301l94 -33q-76 -258 -217 -379q-154 -131 -413 -131q-297 0 -488.5 198t-191.5 499zM268 -279l45 91q61 -23 130 -46.5t126 -23.5q29 0 57.5 9t28.5 34q0 31 -43 45t-75 8l92 189h112q-35 -51 -47 -109q82 -12 121 -35q61 -35 62 -104q0 -72 -86 -113 q-70 -33 -152 -33q-80 0 -186.5 26t-184.5 62z" />
<glyph unicode="&#xc8;" horiz-adv-x="1308" d="M-12 0v94l51 -2q72 0 106 21q45 27 45 94v991q0 92 -36 121q-27 20 -109 20h-55v95h1157l18 -510h-88q-51 242 -125 317q-90 92 -327 92q-61 0 -94 -22.5t-33 -81.5l2 -447l24 -2q135 0 195 88q51 76 51 217h90v-702h-90q0 131 -47 205q-57 90 -182 90l-43 -2l-2 -475 q0 -68 43 -90q31 -16 102 -17h31q209 0 311 123q88 104 113 324h94v-541h-1202zM295 1706q0 45 36 74.5t81 29.5q82 0 256 -104q70 -45 141 -88l-29 -74l-90 -2q-205 0 -300 40t-95 124z" />
<glyph unicode="&#xc9;" horiz-adv-x="1308" d="M-14 0v94l51 -2q72 0 106 21q45 27 45 94v991q0 92 -36 121q-27 20 -109 20h-55v95h1157l18 -510h-88q-51 242 -125 317q-90 92 -327 92q-61 0 -94 -22.5t-33 -81.5l2 -447l24 -2q135 0 195 88q51 76 51 217h90v-702h-90q0 131 -47 205q-57 90 -182 90l-43 -2l-2 -475 q0 -68 43 -90q31 -16 102 -17h31q209 0 311 123q88 104 113 324h94v-541h-1202zM393 1602q121 86 191 129q129 81 207 81q39 0 74.5 -29.5t35.5 -68.5q0 -147 -270 -174q-106 -6 -211 -12z" />
<glyph unicode="&#xca;" horiz-adv-x="1308" d="M-14 0v94l51 -2q72 0 106 21q45 27 45 94v991q0 92 -36 121q-27 20 -109 20h-55v95h1157l18 -510h-88q-51 242 -125 317q-90 92 -327 92q-61 0 -94 -22.5t-33 -81.5l2 -447l24 -2q135 0 195 88q51 76 51 217h90v-702h-90q0 131 -47 205q-57 90 -182 90l-43 -2l-2 -475 q0 -68 43 -90q31 -16 102 -17h31q209 0 311 123q88 104 113 324h94v-541h-1202zM223 1552q25 33 74 98t135 167h307l211 -263h-157l-205 123q-35 -20 -107 -63q-61 -37 -112 -62h-146z" />
<glyph unicode="&#xcb;" horiz-adv-x="1308" d="M-14 0v94l51 -2q72 0 106 21q45 27 45 94v991q0 92 -36 121q-27 20 -109 20h-55v95h1157l18 -510h-88q-51 242 -125 317q-90 92 -327 92q-61 0 -94 -22.5t-33 -81.5l2 -447l24 -2q135 0 195 88q51 76 51 217h90v-702h-90q0 131 -47 205q-57 90 -182 90l-43 -2l-2 -475 q0 -68 43 -90q31 -16 102 -17h31q209 0 311 123q88 104 113 324h94v-541h-1202zM201 1649q0 53 41 88t96 35q53 0 89 -43t36 -99q0 -45 -40 -81t-89 -36q-59 0 -96 37t-37 99zM702 1655q0 47 41.5 84t90.5 37q55 0 93 -42t38 -98q0 -49 -40 -87t-91 -38q-53 0 -92.5 45.5 t-39.5 98.5z" />
<glyph unicode="&#xcc;" horiz-adv-x="759" d="M-4 1333v92h709v-92q-135 0 -162 -20q-37 -29 -37 -158v-942q0 -61 27.5 -91t125.5 -30h46v-94h-707v96l43 -2q96 0 126 30t30 126l-2 887q0 145 -27 171.5t-172 26.5zM35 1708q0 43 35.5 72.5t81.5 29.5q82 0 256 -104q70 -45 141 -88l-27 -74h-92q-156 0 -240 21 q-156 37 -155 143z" />
<glyph unicode="&#xcd;" horiz-adv-x="759" d="M-2 1335v92h709v-92q-135 0 -162 -20q-37 -29 -37 -158v-942q0 -61 27.5 -91t126.5 -30h45v-94h-707v96l43 -2q96 0 126 30t30 126l-2 887q0 145 -27 171.5t-172 26.5zM135 1599q94 63 189 130q130 83 202 83q43 0 79 -27.5t36 -70.5q0 -150 -268 -174q-106 -6 -213 -12z " />
<glyph unicode="&#xce;" horiz-adv-x="759" d="M-12 1552q49 66 129 164q55 68 82 101h307l209 -263h-156l-205 123q-53 -33 -108.5 -65.5t-112.5 -59.5h-145zM20 1333v92h709v-92q-135 0 -162 -20q-37 -29 -37 -158v-942q0 -61 28 -91t126 -30h45v-94h-706v96l43 -2q96 0 125.5 30t29.5 126l-2 887q0 145 -26.5 171.5 t-172.5 26.5z" />
<glyph unicode="&#xcf;" horiz-adv-x="759" d="M-35 1649q0 55 40 89t97 34q51 0 87 -44.5t36 -97.5q0 -47 -39 -82t-88 -35q-59 0 -96 37t-37 99zM16 1333v92h709v-92q-135 0 -162 -20q-37 -29 -37 -158v-942q0 -61 28 -91t126 -30h45v-94h-707v96l43 -2q96 0 126 30t30 126l-2 887q0 145 -26.5 171.5t-172.5 26.5z M463 1651q0 49 40 87t91 38q55 0 94 -41t39 -97q0 -49 -41 -88t-88 -39q-53 0 -94 43t-41 97z" />
<glyph unicode="&#xd1;" horiz-adv-x="1517" d="M-23 2v96q104 0 148 31q53 37 53 141l2 981q-37 55 -80 73.5t-118 18.5v95h444l729 -971v659q0 109 -45 163t-154 54v95h502v-95q-129 0 -172 -65q-33 -51 -33 -191v-1097h-127q-422 561 -843 1124v-291l2 -565q0 -98 53 -133q43 -29 145 -29v-94h-506zM295 1548 q20 125 59 183q55 81 168 81q59 0 144 -22q190 -51 237 -51q31 0 48.5 21.5t25.5 54.5l90 2q0 -98 -51 -179q-59 -90 -154 -90q-53 0 -241 62q-88 29 -148 28q-33 0 -53.5 -17t-34.5 -73h-90z" />
<glyph unicode="&#xd2;" horiz-adv-x="1560" d="M20 719q0 322 203 534.5t522 212.5q307 0 510 -213q197 -207 197 -518q0 -324 -197 -536q-203 -221 -524 -222q-309 0 -510 215.5t-201 526.5zM362 733q0 -342 119 -514q99 -141 271 -141q203 0 290 244q61 170 62 415q0 319 -107 488q-90 141 -243 141q-217 0 -318 -221 q-74 -164 -74 -412zM416 1706q0 45 33.5 74.5t80.5 29.5q84 0 256 -104q70 -45 142 -88l-27 -74l-178 8q-133 0 -195 19q-113 33 -112 135z" />
<glyph unicode="&#xd3;" horiz-adv-x="1560" d="M18 717q0 322 203 534.5t522 212.5q307 0 510 -213q197 -207 197 -518q0 -324 -197 -536q-203 -221 -524 -222q-309 0 -510 215.5t-201 526.5zM360 731q0 -342 119 -514q99 -141 271 -141q203 0 290 243q61 170 62 416q0 319 -107 488q-90 141 -243 141q-217 0 -318 -221 q-74 -164 -74 -412zM514 1602q119 82 188 127q133 83 201 83q43 0 80 -27.5t37 -70.5q0 -147 -270 -174q-106 -6 -211 -12z" />
<glyph unicode="&#xd4;" horiz-adv-x="1560" d="M20 717q0 322 203 534.5t522 212.5q307 0 510 -213q197 -207 197 -518q0 -324 -197 -536q-203 -221 -524 -222q-309 0 -510 215.5t-201 526.5zM342 1552q49 66 129 164q55 68 82 101h305l209 -263h-158l-200 125q-111 -63 -222 -127h-145zM362 731q0 -342 119 -514 q99 -141 271 -141q203 0 290 243q61 170 62 416q0 319 -107 488q-90 141 -243 141q-217 0 -318 -221q-74 -164 -74 -412z" />
<glyph unicode="&#xd5;" horiz-adv-x="1560" d="M18 717q0 322 203 534.5t522 212.5q307 0 510 -213q197 -207 197 -518q0 -324 -197 -536q-203 -221 -524 -222q-309 0 -510 215.5t-201 526.5zM317 1548q14 121 60 185q57 79 168 79q59 0 141 -22q188 -51 240 -51q33 0 49 22q10 12 24 54h86q-23 -125 -53 -179 q-49 -88 -151 -88q-68 0 -195 45t-190 45q-41 0 -59.5 -23.5t-28.5 -66.5h-91zM360 731q0 -342 119 -514q99 -141 271 -141q203 0 290 243q61 170 62 416q0 319 -107 488q-90 141 -243 141q-217 0 -318 -221q-74 -164 -74 -412z" />
<glyph unicode="&#xd6;" horiz-adv-x="1560" d="M20 717q0 322 203 534.5t522 212.5q307 0 510 -213q197 -207 197 -518q0 -324 -197 -536q-203 -221 -524 -222q-309 0 -510 215.5t-201 526.5zM356 1645q0 55 42.5 88.5t99.5 33.5q55 0 87.5 -39.5t32.5 -97.5q0 -47 -46 -83t-93 -36q-51 0 -87 40t-36 94zM362 731 q0 -340 119 -512q99 -143 269 -143q205 0 292 239q61 166 62 414q0 248 -62 406q-90 229 -297 229q-209 0 -309 -225q-74 -168 -74 -408zM856 1647q0 53 38 89t93 36q57 0 93 -42t36 -100q0 -55 -43 -88t-100 -33q-51 0 -84 41.5t-33 96.5z" />
<glyph unicode="&#xd8;" horiz-adv-x="1560" d="M20 705q0 324 191 538q201 227 518 227q233 0 445 -137l133 154l88 -76l-140 -158q96 -109 146.5 -247t50.5 -287q0 -319 -211 -530.5t-532 -211.5q-207 0 -385 123l-35 25l-139 -156l-80 70l139 164q-98 139 -137 235q-51 125 -52 267zM360 715q0 -63 5.5 -118.5 t27.5 -178.5l637 747q-39 90 -112.5 145.5t-167.5 55.5q-172 0 -269 -137q-121 -170 -121 -514zM432 293q61 -106 117 -152q74 -59 180 -59q223 0 313 240q61 162 62 430q0 143 -35 292q-319 -377 -637 -751z" />
<glyph unicode="&#xd9;" horiz-adv-x="1517" d="M-37 1337v97h709l-2 -97l-43 2q-86 0 -121 -25.5t-35 -109.5v-657q0 -203 61 -318q82 -152 269 -151q170 0 260 102q111 127 110 445l3 596q0 68 -38 94t-106 26l-61 -4v97h510v-95h-54q-61 0 -96 -15t-45 -60t-13 -80t-3 -90v-54q0 -66 4 -220t4 -167q0 -332 -96 -485 q-123 -197 -437 -197q-319 0 -449 134.5t-130 457.5v641q0 137 -139 137zM393 1706q0 45 36 74.5t81 29.5q84 0 256 -104q70 -45 141 -88l-28 -74h-91q-160 0 -237 19q-158 37 -158 143z" />
<glyph unicode="&#xda;" horiz-adv-x="1517" d="M-39 1337v97h709l-2 -97l-43 2q-86 0 -121 -25.5t-35 -109.5v-657q0 -203 61 -318q82 -152 269 -151q170 0 260 102q111 127 110 445l2 596q0 68 -37.5 94t-105.5 26l-61 -4v97h510v-95h-54q-61 0 -96 -15t-45 -60t-13 -80t-3 -90v-54q0 -66 4 -220t4 -167 q0 -332 -96 -485q-123 -197 -437 -197q-319 0 -449 134.5t-130 457.5v641q0 137 -139 137zM492 1602q121 86 190 129q129 81 207 81q37 0 73.5 -30.5t36.5 -67.5q0 -147 -272 -174q-106 -6 -211 -12z" />
<glyph unicode="&#xdb;" horiz-adv-x="1517" d="M-37 1337v97h709l-2 -97l-43 2q-86 0 -121 -25.5t-35 -109.5v-657q0 -203 61 -318q82 -152 269 -151q170 0 260 102q111 127 110 445l3 596q0 68 -38 94t-106 26l-61 -4v97h510v-95h-54q-61 0 -96 -15t-45 -60t-13 -80t-3 -90v-54q0 -66 4 -220t4 -167q0 -332 -96 -485 q-123 -197 -437 -197q-319 0 -449 134.5t-130 457.5v641q0 137 -139 137zM319 1552q49 66 130 164q54 68 81 101h308l211 -263h-158l-205 123q-53 -33 -108.5 -65.5t-112.5 -59.5h-146z" />
<glyph unicode="&#xdc;" horiz-adv-x="1517" d="M-37 1337v97h709l-2 -97l-43 2q-86 0 -121 -25.5t-35 -109.5v-651q0 -209 61 -324q82 -152 273 -151q211 0 299 166q68 127 67 356l3 621q0 68 -38 94t-106 26l-61 -4v97h510v-97h-39q-76 0 -111 -11t-47 -69q-4 -20 -6 -48.5t-2 -55.5v-541q0 -307 -109 -460 q-127 -180 -422 -181q-319 0 -449 134.5t-130 457.5v643q0 74 -33 104.5t-106 30.5zM352 1649q0 59 41.5 91t102.5 32q53 0 85.5 -41t32.5 -99q0 -47 -43 -81.5t-90 -34.5q-55 0 -92 38.5t-37 94.5zM856 1649q0 53 37 90t90 37q55 0 94 -41t39 -95q0 -53 -38 -91t-93 -38 t-92 41t-37 97z" />
<glyph unicode="&#xdf;" horiz-adv-x="1222" d="M-14 0v88h39q53 0 80.5 16.5t27.5 67.5v709q0 276 117 405q125 137 399 137q145 0 260 -84q125 -92 125 -233q0 -96 -47 -158q-8 -12 -121 -119q123 -53 176.5 -149t53.5 -238q0 -182 -82 -311q-96 -152 -271 -151q-86 0 -163 55q-86 61 -86 145q0 45 27.5 86t72.5 41 q117 0 117 -114q0 -14 -5.5 -40t-5.5 -32q0 -41 31 -41q37 0 54.5 64.5t17.5 191.5v141q0 166 -39 225q-53 82 -211 82v80q117 0 166 57.5t49 176.5q0 102 -37 155q-45 66 -143 66q-115 0 -160 -98q-31 -68 -31 -201v-854q0 -78 72 -78v-88h-483z" />
<glyph unicode="&#xe0;" horiz-adv-x="1054" d="M27 201q0 125 98 213q78 70 225 121q92 31 240 63v41q0 102 -29 154q-39 70 -133 69q-43 0 -74.5 -20.5t-31.5 -63.5q0 -12 12 -51q6 -20 6 -35q0 -51 -32 -87t-81 -36q-129 0 -129 131q0 135 142 209q115 59 262 60q168 0 258 -75t90 -243l2 -418q0 -39 8 -60t25 -21 q14 0 26.5 10t20.5 28l88 -28q-31 -86 -74 -125q-51 -47 -135 -47q-57 0 -96 22.5t-107 116.5q-102 -74 -155 -98q-84 -39 -181 -39q-100 0 -172.5 55t-72.5 154zM238 1315q0 45 30.5 77.5t77.5 32.5q86 0 232 -159q84 -98 110 -129l-39 -56q-72 29 -180 62 q-57 16 -112.5 34.5t-87 51.5t-31.5 86zM274 266q0 -49 41 -84t91 -35q49 0 100 31q37 23 86 68v250q-123 -16 -205 -62q-113 -63 -113 -168z" />
<glyph unicode="&#xe1;" horiz-adv-x="1054" d="M27 201q0 125 98 213q78 70 225 121q92 31 240 63v41q0 102 -29 154q-39 70 -133 69q-43 0 -74.5 -20.5t-31.5 -63.5q0 -12 12 -51q6 -20 6 -35q0 -51 -32 -87t-81 -36q-129 0 -129 131q0 135 142 209q115 59 262 60q168 0 258 -75t90 -243l2 -418q0 -39 8 -60t25 -21 q14 0 26.5 10t20.5 28l88 -28q-31 -86 -74 -125q-51 -47 -135 -47q-57 0 -96 22.5t-107 116.5q-102 -74 -155 -98q-84 -39 -181 -39q-100 0 -172.5 55t-72.5 154zM274 266q0 -49 41 -84t91 -35q49 0 100 31q37 23 86 68v250q-123 -16 -205 -62q-113 -63 -113 -168zM287 1128 l151 168q39 43 78 88q50 46 107 46q49 0 79.5 -35t30.5 -86q0 -68 -69 -107q-8 -4 -129 -49q-41 -14 -80 -29q-121 -45 -133 -49z" />
<glyph unicode="&#xe2;" horiz-adv-x="1054" d="M27 201q0 125 98 213q78 70 225 121q92 31 240 63v41q0 102 -29 154q-39 70 -133 69q-43 0 -74.5 -20.5t-31.5 -63.5q0 -12 12 -51q6 -20 6 -35q0 -51 -32 -87t-81 -36q-129 0 -129 131q0 135 142 209q115 59 262 60q168 0 258 -75t90 -243l2 -418q0 -39 8 -60t25 -21 q14 0 26.5 10t20.5 28l88 -28q-31 -86 -74 -125q-51 -47 -135 -47q-57 0 -96 22.5t-107 116.5q-102 -74 -155 -98q-84 -39 -181 -39q-100 0 -172.5 55t-72.5 154zM186 1055l144 375h286l154 -373h-108l-187 186q-43 -49 -85 -93t-97 -97zM274 266q0 -49 41 -84t91 -35 q49 0 100 31q37 23 86 68v250q-123 -16 -205 -62q-113 -63 -113 -168z" />
<glyph unicode="&#xe3;" horiz-adv-x="1054" d="M25 201q0 125 98 213q78 70 225 121q92 31 240 63v41q0 102 -29 154q-39 70 -133 69q-43 0 -75 -20.5t-32 -63.5q0 -12 13 -51q6 -20 6 -35q0 -51 -32 -87t-81 -36q-129 0 -129 131q0 135 142 209q115 59 262 60q168 0 258 -75t90 -243l2 -418q0 -39 8 -60t25 -21 q14 0 26.5 10t20.5 28l88 -28q-31 -86 -74 -125q-51 -47 -135 -47q-57 0 -96 22.5t-107 116.5q-102 -74 -155 -98q-84 -39 -181 -39q-100 0 -172.5 55t-72.5 154zM121 1110q14 115 51 176q52 84 154 84q53 0 153.5 -35t153.5 -35q47 0 70.5 15.5t39.5 58.5l82 2 q-25 -115 -61 -174q-55 -90 -148 -90q-51 0 -200 51q-78 27 -123 27q-74 0 -96 -80h-76zM272 266q0 -49 41 -84t90 -35t101 31q37 23 86 68v250q-123 -16 -205 -62q-113 -63 -113 -168z" />
<glyph unicode="&#xe4;" horiz-adv-x="1054" d="M23 207q0 172 204 276q89 45 357 119v41q0 96 -31 150q-39 68 -129 67q-43 0 -75 -17.5t-32 -58.5q0 -14 7 -32q14 -43 14 -56q0 -125 -133 -125q-47 0 -79 40t-32 91q0 131 135 205q113 61 258 62q143 0 240 -60q117 -72 117 -207v-485q0 -27 7 -46t28 -19q14 0 25 11 t20 27l94 -28q-43 -94 -76 -125q-49 -47 -139 -47q-80 0 -121 41q-45 61 -82 98q-59 -63 -152.5 -100t-181.5 -37q-106 0 -172 53q-72 59 -71 162zM162 1311q0 53 41 90t94 37q49 0 88 -39t39 -90q0 -53 -43 -92t-96 -39t-88 39t-35 94zM268 266q0 -51 43 -86t97 -35 q49 0 96 31q25 16 80 70v248q-113 0 -205 -56q-111 -66 -111 -172zM561 1317q0 45 44 81t91 36q53 0 92 -37t39 -90q0 -51 -36.5 -90t-90.5 -39q-61 0 -100 39t-39 100z" />
<glyph unicode="&#xe5;" horiz-adv-x="1054" d="M27 205q0 203 292 317q101 39 267 80v43q0 100 -29 150q-37 63 -129 63q-43 0 -76 -17.5t-33 -56.5q0 -14 7 -32q14 -43 14 -56q0 -51 -29.5 -88t-79.5 -37q-66 0 -99.5 36t-33.5 104q0 127 142 198q117 59 256 60q160 0 249 -68q102 -76 103 -231v-463q0 -55 33 -55 q12 0 25.5 13t21.5 28l94 -27q-35 -92 -76 -129q-53 -47 -143 -47q-66 0 -114 38t-83 103q-94 -72 -151 -100q-84 -41 -179 -41q-109 0 -174 51q-76 59 -75 164zM272 264q0 -49 39 -84t86 -35q55 0 103 27q35 18 86 70v254q-141 -29 -205 -64q-109 -59 -109 -168zM307 1255 q0 74 56.5 128.5t130.5 54.5q78 0 135 -53.5t57 -129.5q0 -80 -54 -136t-134 -56t-135.5 55.5t-55.5 136.5zM401 1251q0 -37 29 -65.5t68 -28.5q35 0 61.5 24.5t26.5 61.5q0 39 -23.5 68.5t-62.5 29.5t-69 -25.5t-30 -64.5z" />
<glyph unicode="&#xe6;" horiz-adv-x="1517" d="M6 190q0 125 98 216q78 72 226 122q90 31 239 64l2 49q0 88 -28 143q-37 70 -117 70q-37 0 -80 -16.5t-43 -46.5q0 -16 8 -41q18 -55 19 -72q0 -55 -35 -90t-92 -35q-55 0 -94 39t-39 96q0 139 170 215q135 59 297 60q61 0 111 -18.5t112 -59.5q61 39 110.5 56t116.5 17 q217 0 330 -155q100 -137 100 -363h-577q0 -123 47 -221q59 -125 172 -125q106 0 201 103q29 33 90 112l86 -43q-76 -133 -170 -205q-111 -84 -252 -84q-127 0 -217 40t-174 135q-47 -66 -161 -120.5t-200 -54.5q-106 0 -176 52q-80 57 -80 161zM258 254q0 -49 38 -83 t89 -34q43 0 95 26.5t91 63.5v269q-174 -59 -200 -74q-113 -61 -113 -168zM836 535h335q2 123 -24 200q-41 119 -139 119q-94 0 -140 -119q-33 -88 -32 -200z" />
<glyph unicode="&#xe7;" horiz-adv-x="970" d="M43 498q0 209 142.5 334.5t353.5 125.5q154 0 254 -67q117 -80 116 -225q0 -68 -39 -109t-108 -41q-55 0 -88 47t-33 105q0 29 17.5 61.5t35.5 67.5q0 31 -36.5 48t-71.5 17q-137 0 -201 -119q-51 -94 -51 -243q0 -188 69 -297q55 -86 148 -86q115 0 184 61q6 6 129 154 l80 -53q-102 -152 -182 -213q-111 -86 -264 -86q-215 0 -340 155q-115 143 -115 363zM53 -279l45 91q63 -23 133 -46.5t125 -23.5q41 0 63.5 12.5t22.5 32.5q0 29 -45 43t-73 8l92 189h110q-14 -20 -24 -45t-23 -64q96 -14 140.5 -49t44.5 -84q0 -74 -86 -117 q-70 -35 -152 -35t-186.5 26t-186.5 62z" />
<glyph unicode="&#xe8;" d="M31 457q0 203 132 351t333 148q211 0 321 -159q96 -139 96 -363h-581q14 -137 55 -219q59 -119 172 -119q86 0 164 68q49 41 117 139l86 -45q-90 -145 -176 -207q-104 -76 -261 -76q-209 0 -333.5 135.5t-124.5 346.5zM213 1317q0 43 34 74.5t77 31.5q86 0 231 -159 q55 -63 111 -127l-37 -56l-293 99q-53 18 -84 49q-39 37 -39 88zM326 528h331v47q0 102 -30 179q-43 104 -129 104q-94 0 -140 -125q-33 -90 -32 -205z" />
<glyph unicode="&#xe9;" d="M33 459q0 203 132 351t333 148q211 0 321 -159q96 -139 96 -363h-581q14 -137 55 -219q59 -119 172 -119q86 0 164 68q49 41 117 139l86 -45q-90 -145 -176 -207q-104 -76 -260 -76q-209 0 -334 135.5t-125 346.5zM262 1130l117 123q47 55 94 113q61 64 127 64 q49 0 80 -35t31 -86q0 -80 -101 -121q-70 -25 -98 -33q-109 -41 -215 -80zM328 530h331v48q0 102 -30 178q-43 104 -129 104q-94 0 -140 -125q-33 -90 -32 -205z" />
<glyph unicode="&#xea;" d="M33 459q0 203 132 351t333 148q211 0 321 -159q96 -139 96 -363h-581q14 -137 55 -219q59 -119 172 -119q86 0 164 68q49 41 117 139l86 -45q-90 -145 -176 -207q-104 -76 -260 -76q-209 0 -334 135.5t-125 346.5zM164 1055l143 375h287l154 -373h-111l-186 186 q-43 -53 -109 -119q-49 -49 -72 -71zM328 530h331v48q0 102 -30 178q-43 104 -129 104q-94 0 -140 -125q-33 -90 -32 -205z" />
<glyph unicode="&#xeb;" d="M33 459q0 203 132 351t333 148q211 0 321 -159q96 -139 96 -363h-581q14 -137 55 -219q59 -119 172 -119q86 0 164 68q49 41 117 139l86 -45q-90 -145 -176 -207q-104 -76 -260 -76q-209 0 -334 135.5t-125 346.5zM115 1300q0 55 37 96.5t94 41.5q61 0 98 -39t37 -99 q0 -51 -41 -87.5t-92 -36.5t-92 36.5t-41 87.5zM328 530h331v48q0 102 -30 178q-43 104 -129 104q-94 0 -140 -125q-33 -90 -32 -205zM516 1303q0 61 42.5 97t105.5 36q49 0 84.5 -42t35.5 -94q0 -49 -36.5 -87.5t-85.5 -38.5q-57 0 -101.5 35.5t-44.5 93.5z" />
<glyph unicode="&#xec;" horiz-adv-x="630" d="M20 2v86h31q63 0 86 14q35 20 35 86l-2 562q0 68 -35 83t-112 15l2 88q102 0 189 5t222 17v-757q0 -72 25.5 -92.5t87.5 -20.5h41v-86h-570zM39 1315q0 43 32.5 75.5t78.5 32.5q47 0 92 -30q12 -8 118 -119l132 -137l-39 -56q-63 25 -141.5 49.5t-143 47t-92.5 49.5 q-37 35 -37 88z" />
<glyph unicode="&#xed;" horiz-adv-x="630" d="M20 0v86h31q63 0 86 14q35 20 35 86l-2 562q0 68 -35 83t-112 15l2 88q102 0 189 5t222 17v-757q0 -72 25.5 -92.5t87.5 -20.5h41v-86h-570zM88 1130l115 123q47 55 94 113q61 64 129 64q49 0 80 -35t31 -86q0 -68 -70 -107q-4 -2 -131 -49q-41 -14 -80 -29 q-121 -45 -133 -49z" />
<glyph unicode="&#xee;" horiz-adv-x="630" d="M8 1055l144 375h286l154 -373h-109l-186 186l-180 -190zM41 0v86h31q63 0 86 14q35 20 35 86l-3 562q0 68 -34.5 83t-112.5 15l2 88q102 0 189.5 5t222.5 17v-757q0 -72 25.5 -92.5t86.5 -20.5h41v-86h-569z" />
<glyph unicode="&#xef;" horiz-adv-x="630" d="M-45 1307q0 53 39 92t94 39q57 0 96 -39t39 -99q0 -51 -41 -87.5t-94 -36.5q-55 0 -94 36.5t-39 94.5zM37 0v86h31q63 0 86 14q35 20 34 86l-2 562q0 68 -34.5 83t-112.5 15l2 88q102 0 189 5t223 17v-757q0 -72 25.5 -92.5t86.5 -20.5h41v-86h-569zM358 1303 q0 61 42.5 97t105.5 36q49 0 84 -41t35 -90q0 -51 -36 -91t-85 -40q-57 0 -101.5 35.5t-44.5 93.5z" />
<glyph unicode="&#xf1;" horiz-adv-x="1308" d="M-6 0v92h33q53 0 79 12q39 18 39 66v590q0 49 -32.5 64.5t-87.5 15.5h-31v94h53q184 0 367 24v-167q72 72 172 121t194 49q168 0 248 -123q68 -104 68 -281l-2 -393q0 -47 33.5 -61.5t86.5 -14.5h31v-90h-571v90h41q53 0 83.5 16.5t30.5 67.5v453q0 80 -44 130t-121 50 q-76 0 -146 -49q-51 -37 -108 -111l-2 -442q0 -80 36 -103q25 -14 117 -14v-86h-567zM233 1110q12 111 54 174q53 86 151 86q53 0 153.5 -35t153.5 -35q49 0 67.5 13.5t45.5 60.5h80q-23 -113 -59 -172q-55 -90 -150 -90q-51 0 -201 51q-78 27 -120 27q-45 0 -62.5 -16.5 t-34.5 -63.5h-78z" />
<glyph unicode="&#xf2;" horiz-adv-x="1138" d="M29 465q0 215 149.5 354t368.5 139q209 0 353 -136t144 -345q0 -219 -144 -359.5t-363 -140.5q-205 0 -356.5 141.5t-151.5 346.5zM274 1325q0 41 33 69.5t76 28.5q86 0 231 -159q84 -98 111 -127l-39 -56l-293 99q-57 20 -88 53t-31 92zM322 492q0 -164 34 -265 q54 -153 187 -153q123 0 178 149q39 106 39 256q0 137 -41 242q-57 145 -172 145q-125 0 -182 -133q-43 -100 -43 -241z" />
<glyph unicode="&#xf3;" horiz-adv-x="1138" d="M31 465q0 215 149.5 354t368.5 139q209 0 353.5 -136t144.5 -345q0 -219 -144.5 -359.5t-363.5 -140.5q-205 0 -356.5 141.5t-151.5 346.5zM322 1130l112 123q47 55 96 113q63 64 129 64q49 0 81 -36t32 -85q0 -68 -70 -107q-4 -2 -131 -49q-90 -33 -139 -51.5t-76 -26.5 zM324 492q0 -164 34 -265q54 -153 187 -153q123 0 178 149q39 106 39 256q0 137 -41 242q-57 145 -172 145q-125 0 -182 -133q-43 -100 -43 -241z" />
<glyph unicode="&#xf4;" horiz-adv-x="1138" d="M31 465q0 215 149.5 354t368.5 139q209 0 353.5 -136t144.5 -345q0 -219 -144.5 -359.5t-363.5 -140.5q-205 0 -356.5 141.5t-151.5 346.5zM223 1055l144 375h286l154 -373h-111l-184 188q-43 -51 -88 -98q-35 -37 -94 -94zM324 492q0 -164 34 -265q54 -153 187 -153 q123 0 178 149q39 106 39 256q0 137 -41 242q-57 145 -172 145q-125 0 -182 -133q-43 -100 -43 -241z" />
<glyph unicode="&#xf5;" horiz-adv-x="1138" d="M29 465q0 215 149.5 354t368.5 139q209 0 353 -136t144 -345q0 -219 -144 -359.5t-363 -140.5q-205 0 -356.5 141.5t-151.5 346.5zM158 1110q14 115 51 176q51 84 153 84q53 0 153.5 -35t156.5 -35q45 0 69.5 15.5t38.5 58.5h82q-23 -113 -59 -172q-55 -90 -152 -90 q-51 0 -200 51q-78 27 -121 27q-78 0 -94 -80h-78zM322 492q0 -164 34 -265q54 -153 187 -153q123 0 178 149q39 106 39 256q0 137 -41 242q-57 145 -172 145q-125 0 -182 -133q-43 -100 -43 -241z" />
<glyph unicode="&#xf6;" horiz-adv-x="1138" d="M33 467q0 221 151.5 356t374.5 135q209 0 346 -141t137 -348q0 -203 -145 -346t-348 -143q-215 0 -363 133q-154 139 -153 354zM207 1307q0 51 44 87t97 36t89 -40t36 -94q0 -49 -42 -87t-95 -38q-57 0 -93 38.5t-36 97.5zM324 487q0 -172 30 -262q52 -151 189 -151 q127 0 178 151q33 98 33 260q0 150 -35 242q-53 139 -176 139q-125 0 -181 -135q-39 -96 -38 -244zM610 1307q0 51 39 85.5t88 34.5q59 0 98 -38.5t39 -98.5q0 -43 -38.5 -82t-81.5 -39q-66 0 -105 36t-39 102z" />
<glyph unicode="&#xf7;" horiz-adv-x="1079" d="M0 465v106h1034v-106h-1034zM397 250q0 45 31 77.5t78 32.5q45 0 77.5 -32.5t32.5 -77.5t-32.5 -78t-77.5 -33q-43 0 -76 33t-33 78zM397 786q0 45 31 78t78 33q45 0 77.5 -33t32.5 -78t-32.5 -77.5t-77.5 -32.5q-43 0 -76 32.5t-33 77.5z" />
<glyph unicode="&#xf8;" horiz-adv-x="1138" d="M29 -39l149 164q-74 90 -104 160q-37 84 -37 188q0 215 148.5 351.5t365.5 136.5q74 0 147.5 -20.5t141.5 -57.5l143 164l70 -68l-140 -158q63 -66 99.5 -150.5t36.5 -172.5q0 -227 -142.5 -371.5t-369.5 -144.5q-147 0 -281 84l-152 -177zM328 492q0 -29 4 -101t4 -78 l381 428q-45 74 -78 98.5t-74 24.5q-139 0 -196 -123q-41 -88 -41 -249zM369 199q33 -57 59 -84q41 -41 92 -41q147 0 203 143q37 94 37 270q0 27 -7.5 70t-11.5 66z" />
<glyph unicode="&#xf9;" horiz-adv-x="1267" d="M-33 844v90l422 24v-598q0 -106 31 -157q39 -66 139 -66q106 0 166 90q51 78 51 193v252q0 113 -18 137q-27 35 -135 35v90l417 22v-759q0 -72 26 -90.5t87 -18.5h41v-90l-418 -16v161q-78 -78 -167 -123t-191 -45q-158 0 -232 103q-63 88 -63 254v385q0 68 -20.5 99.5 t-86.5 31.5zM326 1315q0 43 33.5 76.5t76.5 33.5q86 0 232 -159q84 -98 110 -129l-39 -56l-293 99q-55 20 -84 47q-37 35 -36 88z" />
<glyph unicode="&#xfa;" horiz-adv-x="1267" d="M-31 844v90l422 24v-598q0 -106 31 -157q39 -66 139 -66q106 0 166 90q51 78 51 193v252q0 113 -18 137q-27 35 -135 35v90l417 22v-759q0 -72 26 -90.5t87 -18.5h41v-90l-418 -16v161q-78 -78 -167 -123t-191 -45q-158 0 -232 103q-63 88 -63 254v385q0 68 -20.5 99.5 t-86.5 31.5zM373 1130l116 123q47 55 97 113q64 64 127 64q49 0 79.5 -35t30.5 -84q0 -80 -102 -123q-72 -25 -98 -35l-129 -49.5t-82 -28.5z" />
<glyph unicode="&#xfb;" horiz-adv-x="1267" d="M-31 844v90l422 24v-598q0 -106 31 -157q39 -66 139 -66q106 0 166 90q51 78 51 193v252q0 113 -18 137q-27 35 -135 35v90l417 22v-759q0 -72 26 -90.5t87 -18.5h41v-90l-418 -16v161q-78 -78 -167 -123t-191 -45q-158 0 -232 103q-63 88 -63 254v385q0 68 -20.5 99.5 t-86.5 31.5zM274 1053l146 377h287l153 -373h-108l-187 186q-92 -96 -182 -190h-109z" />
<glyph unicode="&#xfc;" horiz-adv-x="1267" d="M-25 850v86l416 22v-561q0 -123 23 -176q37 -84 141 -84q121 0 178 101q45 80 45 211v272q0 84 -31.5 103.5t-121.5 19.5v90q121 0 243.5 10t173.5 14v-729q0 -96 27 -117.5t127 -21.5v-90l-420 -18v159q-63 -72 -163.5 -119t-198.5 -47q-150 0 -224 107q-63 92 -63 250 v401q0 80 -39 103q-25 14 -113 14zM256 1300q0 53 39 92.5t94 39.5t91 -40t36 -98q0 -49 -41 -86t-90 -37q-55 0 -92 37t-37 92zM657 1300q0 53 35 92.5t90 39.5q53 0 93 -38t40 -91q0 -57 -36.5 -94.5t-94.5 -37.5q-49 0 -88 39t-39 90z" />
<glyph unicode="&#xff;" horiz-adv-x="1054" d="M-39 842v90h516v-84q-39 -4 -64.5 -17.5t-25.5 -46.5q0 -12 57 -139q76 -164 152 -326q31 63 111 240q90 199 90 221q0 43 -64 56q-78 6 -98 8v90h389v-94h-10q-66 0 -90 -33q-25 -53 -41 -92l-351 -768q-59 -133 -147 -207q-102 -88 -235 -88q-72 0 -122.5 37t-50.5 104 q0 51 34 89t81 38q70 0 112 -64.5t60 -64.5q41 0 107 90q47 66 80 133l-263 570q-35 80 -67 161q-53 100 -129 101zM133 1309q0 51 39 90t92 39q55 0 94 -37t39 -92q0 -57 -37.5 -95t-95.5 -38q-55 0 -93 37.5t-38 95.5zM532 1303q0 61 42.5 97t105.5 36q47 0 84 -41t37 -90 q0 -51 -36 -91t-87 -40q-57 0 -101.5 35.5t-44.5 93.5z" />
<glyph unicode="&#x152;" horiz-adv-x="2068" d="M2 717q0 309 176 516q186 219 490 219q51 0 155.5 -7t143.5 -7h925l19 -506h-96q-27 236 -128.5 320.5t-340.5 84.5q-49 0 -76 -32.5t-27 -81.5v-430h25q129 0 190 88q55 78 55 211h93v-707h-93v14q0 143 -53 211q-61 78 -200 78h-17v-471q0 -70 37 -95.5t109 -25.5 q217 0 327 117q102 106 131 330h92l-12 -541h-1065q-41 0 -136 -4t-103 -4q-276 0 -455 227q-166 211 -166 496zM346 713q0 -244 72 -402q98 -215 313 -215q113 0 164 70q45 61 45 178v786q0 104 -61.5 164t-163.5 60q-213 0 -305 -230q-63 -160 -64 -411z" />
<glyph unicode="&#x153;" horiz-adv-x="1689" d="M8 492q0 205 158 339q150 127 358 127q84 0 170 -32.5t154 -85.5q55 53 139 84.5t166 31.5q213 0 324 -159q96 -139 96 -363h-574q0 -127 48 -221q59 -119 172 -119q84 0 165 66q70 57 115 141l86 -37q-70 -139 -177.5 -216t-258.5 -77q-61 0 -125 21q-18 6 -188 86 q-115 -57 -158 -74q-80 -29 -174 -29q-223 0 -359.5 146.5t-136.5 370.5zM297 467q0 -152 37 -248q55 -141 180 -141t174 155q31 96 31 259q0 139 -35 229q-51 133 -168 133q-129 0 -182 -137q-37 -94 -37 -250zM991 528h336v45q0 102 -31 177q-43 102 -131 102 q-96 0 -141 -121q-33 -86 -33 -203z" />
<glyph unicode="&#x178;" horiz-adv-x="1476" d="M-43 1341v95h690l2 -95h-31q-49 0 -84.5 -15t-35.5 -58q0 -45 135 -258q88 -135 176 -271q80 127 160 256q123 205 123 246q0 59 -64 82q-41 14 -125 14h-45v97h588v-97h-8q-78 0 -133.5 -34.5t-98.5 -106.5l-344 -561v-432q0 -66 41 -90q31 -18 96 -19h34t36 2v-98h-754 v96l86 -2q88 0 121 24.5t33 71.5v373q-115 186 -186 303q-117 190 -191 301q-61 96 -80 115q-49 53 -118 59zM276 1649q0 55 41.5 89t98.5 34q51 0 87 -44.5t36 -97.5q0 -45 -40 -81t-89 -36q-59 0 -96.5 37t-37.5 99zM780 1653q0 49 39 86t90 37q55 0 94 -41t39 -99 q0 -51 -40.5 -88t-92.5 -37q-53 0 -91 42t-38 100z" />
<glyph unicode="&#x2c6;" horiz-adv-x="0" d="M-293 1055l143 375h287l154 -373h-111l-186 186q-43 -53 -109 -119l-71 -71z" />
<glyph unicode="&#x2dc;" horiz-adv-x="0" d="M-360 1110q0 94 53 172q61 88 153 88q53 0 153.5 -35t154.5 -35q49 0 67.5 13.5t44.5 60.5h80q-23 -113 -59 -172q-55 -90 -150 -90q-51 0 -200 51q-78 27 -121 27q-45 0 -62.5 -16.5t-34.5 -63.5h-79z" />
<glyph unicode="&#x2000;" horiz-adv-x="938" />
<glyph unicode="&#x2001;" horiz-adv-x="1876" />
<glyph unicode="&#x2002;" horiz-adv-x="938" />
<glyph unicode="&#x2003;" horiz-adv-x="1876" />
<glyph unicode="&#x2004;" horiz-adv-x="625" />
<glyph unicode="&#x2005;" horiz-adv-x="469" />
<glyph unicode="&#x2006;" horiz-adv-x="312" />
<glyph unicode="&#x2007;" horiz-adv-x="312" />
<glyph unicode="&#x2008;" horiz-adv-x="234" />
<glyph unicode="&#x2009;" horiz-adv-x="375" />
<glyph unicode="&#x200a;" horiz-adv-x="104" />
<glyph unicode="&#x2010;" horiz-adv-x="925" d="M47 350v266h789v-266h-789z" />
<glyph unicode="&#x2011;" horiz-adv-x="925" d="M47 350v266h789v-266h-789z" />
<glyph unicode="&#x2012;" horiz-adv-x="925" d="M47 350v266h789v-266h-789z" />
<glyph unicode="&#x2013;" d="M18 492v122h922v-122h-922z" />
<glyph unicode="&#x2014;" horiz-adv-x="1349" d="M-47 494v213h1364v-213h-1364z" />
<glyph unicode="&#x2018;" horiz-adv-x="466" d="M39 1010q0 133 94 252q74 92 207 184l68 -78q-66 -49 -101 -86q-63 -66 -63 -111q0 -16 78.5 -66t78.5 -136q0 -76 -53 -127t-129 -51q-82 0 -131 66.5t-49 152.5z" />
<glyph unicode="&#x2019;" horiz-adv-x="466" d="M45 866q53 43 96 92q64 72 64 111q0 18 -79 65.5t-79 131.5q0 78 52.5 128t129.5 50q80 0 131 -72q45 -63 46 -149q0 -139 -91 -248q-51 -63 -204 -178z" />
<glyph unicode="&#x201a;" horiz-adv-x="421" d="M35 -248q53 41 100 92q68 74 68 111q0 12 -80 63.5t-80 145.5q0 74 53.5 121t128.5 47q82 0 129 -66.5t47 -152.5q0 -129 -92 -254q-80 -109 -205 -183z" />
<glyph unicode="&#x201c;" horiz-adv-x="925" d="M29 1022q0 131 96 246q41 49 201 182l59 -74q-74 -70 -96 -96q-63 -74 -64 -113q0 -10 82 -59t82 -139q0 -74 -51 -123t-125 -49q-86 0 -135 68.5t-49 156.5zM489 1018q0 164 132 297q37 39 157 133l66 -72q-49 -39 -99 -94q-63 -72 -63 -111q0 -16 83 -61t83 -152 q0 -68 -54.5 -115.5t-121.5 -47.5q-86 0 -134.5 65.5t-48.5 157.5z" />
<glyph unicode="&#x201d;" horiz-adv-x="925" d="M37 862q51 43 96 92q64 70 64 111q0 16 -80 61t-80 144q0 74 54 122t130 48t123 -70t47 -149q0 -104 -51 -195q-57 -100 -234 -240zM492 866q57 41 98 86q57 62 65 113q-4 23 -81.5 64.5t-77.5 127.5q0 80 49 131.5t129 51.5t129 -64.5t49 -148.5q0 -133 -88 -254 q-76 -102 -205 -185z" />
<glyph unicode="&#x201e;" horiz-adv-x="925" d="M31 160q0 72 55 123t127 51q82 0 130 -65.5t48 -149.5q0 -174 -129 -301q-18 -18 -160 -137l-71 71q66 55 100 90q68 70 68 113q0 18 -84 65.5t-84 139.5zM489 164q0 80 57.5 125t141.5 45q72 0 117 -70.5t45 -146.5q0 -135 -90 -252q-68 -88 -205 -182l-66 71 q51 47 103 94q57 60 65 119l-4 10q-4 4 -110 62q-53 29 -54 125z" />
<glyph unicode="&#x2022;" horiz-adv-x="681" d="M74 723q0 109 81 187.5t191 78.5q111 0 186.5 -77.5t75.5 -188.5q0 -113 -74.5 -189.5t-187.5 -76.5q-111 0 -191.5 78.5t-80.5 187.5z" />
<glyph unicode="&#x2026;" horiz-adv-x="2048" d="M236 0v217h213v-217h-213zM918 0v217h212v-217h-212zM1599 0v217h213v-217h-213z" />
<glyph unicode="&#x202f;" horiz-adv-x="375" />
<glyph unicode="&#x2039;" horiz-adv-x="681" d="M180 473v189l322 251v-180l-215 -166l215 -166v-180z" />
<glyph unicode="&#x203a;" horiz-adv-x="681" d="M180 221v180l215 166l-215 166v180l322 -251v-189z" />
<glyph unicode="&#x205f;" horiz-adv-x="469" />
<glyph unicode="&#x2122;" horiz-adv-x="1746" d="M0 1133l6 190h623l6 -190l-35 -3v17q0 88 -74 117q-43 16 -149 16v-614q0 -27 21.5 -40.5t76.5 -13.5v-37h-315v37q57 0 78.5 12.5t21.5 41.5l-2 614q-111 0 -152 -18q-70 -31 -69 -132zM692 1288v35h226l258 -565l247 565h222v-35h-19q-37 0 -57.5 -9t-20.5 -40v-573 q0 -27 21.5 -40.5t77.5 -13.5v-37h-316v37q57 0 79 12.5t22 41.5v544l-263 -635h-36l-283 605v-514q0 -35 35 -48q18 -6 65 -6v-37h-254v37q57 0 79 12.5t22 41.5v553q0 51 -24.5 60t-53.5 9h-27z" />
<glyph unicode="&#x25fc;" horiz-adv-x="931" d="M0 0v932h932v-932h-932z" />
</font>
</defs>
</svg>
